<?xml version="1.0" encoding="UTF-8" standalone="no"?><svg xmlns="http://www.w3.org/2000/svg" xmlns:xlink="http://www.w3.org/1999/xlink" contentStyleType="text/css" height="938px" preserveAspectRatio="none" style="width:981px;height:938px;background:#FFFFFF;" version="1.1" viewBox="0 0 981 938" width="981px" zoomAndPan="magnify"><defs/><g><!--MD5=[e9a58730c562b34349daa605d1ed6662]
class Container--><g id="elem_Container"><rect codeLine="5" fill="#F1F1F1" height="136.0469" id="Container" rx="2.5" ry="2.5" style="stroke:#181818;stroke-width:0.5;" width="200" x="267.5" y="7"/><ellipse cx="332.25" cy="23" fill="#ADD1B2" rx="11" ry="11" style="stroke:#181818;stroke-width:1.0;"/><path d="M335.0156,18.875 Q335.1719,18.6563 335.3594,18.5469 Q335.5469,18.4375 335.7656,18.4375 Q336.1406,18.4375 336.375,18.7031 Q336.6094,18.9531 336.6094,19.5625 L336.6094,21.0156 Q336.6094,21.625 336.375,21.8906 Q336.1406,22.1563 335.7656,22.1563 Q335.4219,22.1563 335.2188,21.9531 Q335.0156,21.7656 334.9063,21.25 Q334.8594,20.8906 334.6719,20.7031 Q334.3438,20.3281 333.7344,20.1094 Q333.125,19.8906 332.5,19.8906 Q331.7344,19.8906 331.0938,20.2188 Q330.4688,20.5469 329.9688,21.2969 Q329.4844,22.0469 329.4844,23.0781 L329.4844,24.1719 Q329.4844,25.4063 330.375,26.2344 Q331.2656,27.0469 332.8594,27.0469 Q333.7969,27.0469 334.4531,26.7969 Q334.8438,26.6406 335.2656,26.2031 Q335.5313,25.9375 335.6719,25.8594 Q335.8281,25.7813 336.0313,25.7813 Q336.3594,25.7813 336.6094,26.0469 Q336.875,26.2969 336.875,26.6406 Q336.875,26.9844 336.5313,27.3906 Q336.0313,27.9688 335.2344,28.2969 Q334.1563,28.75 332.8594,28.75 Q331.3438,28.75 330.1406,28.125 Q329.1563,27.625 328.4688,26.5625 Q327.7813,25.4844 327.7813,24.2031 L327.7813,23.0469 Q327.7813,21.7188 328.3906,20.5781 Q329.0156,19.4219 330.1094,18.8125 Q331.2031,18.1875 332.4375,18.1875 Q333.1719,18.1875 333.8125,18.3594 Q334.4688,18.5156 335.0156,18.875 Z " fill="#000000"/><text fill="#000000" font-family="sans-serif" font-size="14" lengthAdjust="spacing" textLength="62" x="352.75" y="28.7285">Container</text><line style="stroke:#181818;stroke-width:0.5;" x1="268.5" x2="466.5" y1="39" y2="39"/><text fill="#000000" font-family="sans-serif" font-size="14" lengthAdjust="spacing" textLength="188" x="273.5" y="57.5332">-data: Map&lt;String, FruitData&gt;</text><line style="stroke:#181818;stroke-width:0.5;" x1="268.5" x2="466.5" y1="64.6094" y2="64.6094"/><text fill="#000000" font-family="sans-serif" font-size="14" lengthAdjust="spacing" textLength="187" x="273.5" y="83.1426">+addFruitData(fruit, fruitData)</text><text fill="#000000" font-family="sans-serif" font-size="14" lengthAdjust="spacing" textLength="121" x="273.5" y="100.752">+getFruitData(fruit)</text><text fill="#000000" font-family="sans-serif" font-size="14" lengthAdjust="spacing" textLength="74" x="273.5" y="118.3613">+getFruits()</text><text fill="#000000" font-family="sans-serif" font-size="14" lengthAdjust="spacing" textLength="63" x="273.5" y="135.9707">+iterator()</text></g><!--MD5=[f9749dc75bf6faa5a638f9c61b86e169]
class FruitData--><g id="elem_FruitData"><rect codeLine="14" fill="#F1F1F1" height="136.0469" id="FruitData" rx="2.5" ry="2.5" style="stroke:#181818;stroke-width:0.5;" width="266" x="141.5" y="221"/><ellipse cx="240.75" cy="237" fill="#ADD1B2" rx="11" ry="11" style="stroke:#181818;stroke-width:1.0;"/><path d="M243.5156,232.875 Q243.6719,232.6563 243.8594,232.5469 Q244.0469,232.4375 244.2656,232.4375 Q244.6406,232.4375 244.875,232.7031 Q245.1094,232.9531 245.1094,233.5625 L245.1094,235.0156 Q245.1094,235.625 244.875,235.8906 Q244.6406,236.1563 244.2656,236.1563 Q243.9219,236.1563 243.7188,235.9531 Q243.5156,235.7656 243.4063,235.25 Q243.3594,234.8906 243.1719,234.7031 Q242.8438,234.3281 242.2344,234.1094 Q241.625,233.8906 241,233.8906 Q240.2344,233.8906 239.5938,234.2188 Q238.9688,234.5469 238.4688,235.2969 Q237.9844,236.0469 237.9844,237.0781 L237.9844,238.1719 Q237.9844,239.4063 238.875,240.2344 Q239.7656,241.0469 241.3594,241.0469 Q242.2969,241.0469 242.9531,240.7969 Q243.3438,240.6406 243.7656,240.2031 Q244.0313,239.9375 244.1719,239.8594 Q244.3281,239.7813 244.5313,239.7813 Q244.8594,239.7813 245.1094,240.0469 Q245.375,240.2969 245.375,240.6406 Q245.375,240.9844 245.0313,241.3906 Q244.5313,241.9688 243.7344,242.2969 Q242.6563,242.75 241.3594,242.75 Q239.8438,242.75 238.6406,242.125 Q237.6563,241.625 236.9688,240.5625 Q236.2813,239.4844 236.2813,238.2031 L236.2813,237.0469 Q236.2813,235.7188 236.8906,234.5781 Q237.5156,233.4219 238.6094,232.8125 Q239.7031,232.1875 240.9375,232.1875 Q241.6719,232.1875 242.3125,232.3594 Q242.9688,232.5156 243.5156,232.875 Z " fill="#000000"/><text fill="#000000" font-family="sans-serif" font-size="14" lengthAdjust="spacing" textLength="59" x="261.25" y="242.7285">FruitData</text><line style="stroke:#181818;stroke-width:0.5;" x1="142.5" x2="406.5" y1="253" y2="253"/><text fill="#000000" font-family="sans-serif" font-size="14" lengthAdjust="spacing" textLength="235" x="147.5" y="271.5332">-fruitData: Map&lt;String, CountryData&gt;</text><line style="stroke:#181818;stroke-width:0.5;" x1="142.5" x2="406.5" y1="278.6094" y2="278.6094"/><text fill="#000000" font-family="sans-serif" font-size="14" lengthAdjust="spacing" textLength="254" x="147.5" y="297.1426">+addCountryData(country, countryData)</text><text fill="#000000" font-family="sans-serif" font-size="14" lengthAdjust="spacing" textLength="165" x="147.5" y="314.752">+getCountryData(country)</text><text fill="#000000" font-family="sans-serif" font-size="14" lengthAdjust="spacing" textLength="99" x="147.5" y="332.3613">+getCountries()</text><text fill="#000000" font-family="sans-serif" font-size="14" lengthAdjust="spacing" textLength="63" x="147.5" y="349.9707">+iterator()</text></g><!--MD5=[7fc7cbba852adc009bf6f0cff1d89c87]
class CountryData--><g id="elem_CountryData"><rect codeLine="23" fill="#F1F1F1" height="171.2656" id="CountryData" rx="2.5" ry="2.5" style="stroke:#181818;stroke-width:0.5;" width="329" x="7" y="435"/><ellipse cx="127.25" cy="451" fill="#ADD1B2" rx="11" ry="11" style="stroke:#181818;stroke-width:1.0;"/><path d="M130.0156,446.875 Q130.1719,446.6563 130.3594,446.5469 Q130.5469,446.4375 130.7656,446.4375 Q131.1406,446.4375 131.375,446.7031 Q131.6094,446.9531 131.6094,447.5625 L131.6094,449.0156 Q131.6094,449.625 131.375,449.8906 Q131.1406,450.1563 130.7656,450.1563 Q130.4219,450.1563 130.2188,449.9531 Q130.0156,449.7656 129.9063,449.25 Q129.8594,448.8906 129.6719,448.7031 Q129.3438,448.3281 128.7344,448.1094 Q128.125,447.8906 127.5,447.8906 Q126.7344,447.8906 126.0938,448.2188 Q125.4688,448.5469 124.9688,449.2969 Q124.4844,450.0469 124.4844,451.0781 L124.4844,452.1719 Q124.4844,453.4063 125.375,454.2344 Q126.2656,455.0469 127.8594,455.0469 Q128.7969,455.0469 129.4531,454.7969 Q129.8438,454.6406 130.2656,454.2031 Q130.5313,453.9375 130.6719,453.8594 Q130.8281,453.7813 131.0313,453.7813 Q131.3594,453.7813 131.6094,454.0469 Q131.875,454.2969 131.875,454.6406 Q131.875,454.9844 131.5313,455.3906 Q131.0313,455.9688 130.2344,456.2969 Q129.1563,456.75 127.8594,456.75 Q126.3438,456.75 125.1406,456.125 Q124.1563,455.625 123.4688,454.5625 Q122.7813,453.4844 122.7813,452.2031 L122.7813,451.0469 Q122.7813,449.7188 123.3906,448.5781 Q124.0156,447.4219 125.1094,446.8125 Q126.2031,446.1875 127.4375,446.1875 Q128.1719,446.1875 128.8125,446.3594 Q129.4688,446.5156 130.0156,446.875 Z " fill="#000000"/><text fill="#000000" font-family="sans-serif" font-size="14" lengthAdjust="spacing" textLength="80" x="147.75" y="456.7285">CountryData</text><line style="stroke:#181818;stroke-width:0.5;" x1="8" x2="335" y1="467" y2="467"/><text fill="#000000" font-family="sans-serif" font-size="14" lengthAdjust="spacing" textLength="317" x="13" y="485.5332">-productionData: SortedSet&lt;YearProductionData&gt;</text><line style="stroke:#181818;stroke-width:0.5;" x1="8" x2="335" y1="492.6094" y2="492.6094"/><text fill="#000000" font-family="sans-serif" font-size="14" lengthAdjust="spacing" textLength="226" x="13" y="511.1426">+addProductionData(year, quantity)</text><text fill="#000000" font-family="sans-serif" font-size="14" lengthAdjust="spacing" textLength="164" x="13" y="528.752">+getProductionData(year)</text><text fill="#000000" font-family="sans-serif" font-size="14" lengthAdjust="spacing" textLength="143" x="13" y="546.3613">+getProductionYears()</text><text fill="#000000" font-family="sans-serif" font-size="14" lengthAdjust="spacing" textLength="204" x="13" y="563.9707">+getOverallProductionQuantity()</text><text fill="#000000" font-family="sans-serif" font-size="14" lengthAdjust="spacing" textLength="42" x="13" y="581.5801">+size()</text><text fill="#000000" font-family="sans-serif" font-size="14" lengthAdjust="spacing" textLength="63" x="13" y="599.1895">+iterator()</text></g><!--MD5=[ad333e840a12d1559da41e79a89223e2]
class YearProductionData--><g id="elem_YearProductionData"><rect codeLine="34" fill="#F1F1F1" height="153.6563" id="YearProductionData" rx="2.5" ry="2.5" style="stroke:#181818;stroke-width:0.5;" width="160" x="91.5" y="684"/><ellipse cx="106.5" cy="700" fill="#ADD1B2" rx="11" ry="11" style="stroke:#181818;stroke-width:1.0;"/><path d="M109.2656,695.875 Q109.4219,695.6563 109.6094,695.5469 Q109.7969,695.4375 110.0156,695.4375 Q110.3906,695.4375 110.625,695.7031 Q110.8594,695.9531 110.8594,696.5625 L110.8594,698.0156 Q110.8594,698.625 110.625,698.8906 Q110.3906,699.1563 110.0156,699.1563 Q109.6719,699.1563 109.4688,698.9531 Q109.2656,698.7656 109.1563,698.25 Q109.1094,697.8906 108.9219,697.7031 Q108.5938,697.3281 107.9844,697.1094 Q107.375,696.8906 106.75,696.8906 Q105.9844,696.8906 105.3438,697.2188 Q104.7188,697.5469 104.2188,698.2969 Q103.7344,699.0469 103.7344,700.0781 L103.7344,701.1719 Q103.7344,702.4063 104.625,703.2344 Q105.5156,704.0469 107.1094,704.0469 Q108.0469,704.0469 108.7031,703.7969 Q109.0938,703.6406 109.5156,703.2031 Q109.7813,702.9375 109.9219,702.8594 Q110.0781,702.7813 110.2813,702.7813 Q110.6094,702.7813 110.8594,703.0469 Q111.125,703.2969 111.125,703.6406 Q111.125,703.9844 110.7813,704.3906 Q110.2813,704.9688 109.4844,705.2969 Q108.4063,705.75 107.1094,705.75 Q105.5938,705.75 104.3906,705.125 Q103.4063,704.625 102.7188,703.5625 Q102.0313,702.4844 102.0313,701.2031 L102.0313,700.0469 Q102.0313,698.7188 102.6406,697.5781 Q103.2656,696.4219 104.3594,695.8125 Q105.4531,695.1875 106.6875,695.1875 Q107.4219,695.1875 108.0625,695.3594 Q108.7188,695.5156 109.2656,695.875 Z " fill="#000000"/><text fill="#000000" font-family="sans-serif" font-size="14" lengthAdjust="spacing" textLength="128" x="120.5" y="705.7285">YearProductionData</text><line style="stroke:#181818;stroke-width:0.5;" x1="92.5" x2="250.5" y1="716" y2="716"/><text fill="#000000" font-family="sans-serif" font-size="14" lengthAdjust="spacing" textLength="56" x="97.5" y="734.5332">-year: int</text><text fill="#000000" font-family="sans-serif" font-size="14" lengthAdjust="spacing" textLength="78" x="97.5" y="752.1426">-quantity: int</text><line style="stroke:#181818;stroke-width:0.5;" x1="92.5" x2="250.5" y1="759.2188" y2="759.2188"/><text fill="#000000" font-family="sans-serif" font-size="14" lengthAdjust="spacing" textLength="68" x="97.5" y="777.752">+getYear()</text><text fill="#000000" font-family="sans-serif" font-size="14" lengthAdjust="spacing" textLength="91" x="97.5" y="795.3613">+getQuantity()</text><text fill="#000000" font-family="sans-serif" font-size="14" lengthAdjust="spacing" textLength="93" x="97.5" y="812.9707">+equals(other)</text><text fill="#000000" font-family="sans-serif" font-size="14" lengthAdjust="spacing" textLength="123" x="97.5" y="830.5801">+compareTo(other)</text></g><!--MD5=[60b59e3d7d8b95aff167b5157d975660]
class CSVReader--><g id="elem_CSVReader"><rect codeLine="44" fill="#F1F1F1" height="118.4375" id="CSVReader" rx="2.5" ry="2.5" style="stroke:#181818;stroke-width:0.5;" width="129" x="503" y="16"/><ellipse cx="527.9" cy="32" fill="#ADD1B2" rx="11" ry="11" style="stroke:#181818;stroke-width:1.0;"/><path d="M530.6656,27.875 Q530.8219,27.6563 531.0094,27.5469 Q531.1969,27.4375 531.4156,27.4375 Q531.7906,27.4375 532.025,27.7031 Q532.2594,27.9531 532.2594,28.5625 L532.2594,30.0156 Q532.2594,30.625 532.025,30.8906 Q531.7906,31.1563 531.4156,31.1563 Q531.0719,31.1563 530.8688,30.9531 Q530.6656,30.7656 530.5563,30.25 Q530.5094,29.8906 530.3219,29.7031 Q529.9938,29.3281 529.3844,29.1094 Q528.775,28.8906 528.15,28.8906 Q527.3844,28.8906 526.7438,29.2188 Q526.1188,29.5469 525.6188,30.2969 Q525.1344,31.0469 525.1344,32.0781 L525.1344,33.1719 Q525.1344,34.4063 526.025,35.2344 Q526.9156,36.0469 528.5094,36.0469 Q529.4469,36.0469 530.1031,35.7969 Q530.4938,35.6406 530.9156,35.2031 Q531.1813,34.9375 531.3219,34.8594 Q531.4781,34.7813 531.6813,34.7813 Q532.0094,34.7813 532.2594,35.0469 Q532.525,35.2969 532.525,35.6406 Q532.525,35.9844 532.1813,36.3906 Q531.6813,36.9688 530.8844,37.2969 Q529.8063,37.75 528.5094,37.75 Q526.9938,37.75 525.7906,37.125 Q524.8063,36.625 524.1188,35.5625 Q523.4313,34.4844 523.4313,33.2031 L523.4313,32.0469 Q523.4313,30.7188 524.0406,29.5781 Q524.6656,28.4219 525.7594,27.8125 Q526.8531,27.1875 528.0875,27.1875 Q528.8219,27.1875 529.4625,27.3594 Q530.1188,27.5156 530.6656,27.875 Z " fill="#000000"/><text fill="#000000" font-family="sans-serif" font-size="14" lengthAdjust="spacing" textLength="75" x="544.1" y="37.7285">CSVReader</text><line style="stroke:#181818;stroke-width:0.5;" x1="504" x2="631" y1="48" y2="48"/><text fill="#000000" font-family="sans-serif" font-size="14" lengthAdjust="spacing" textLength="117" x="509" y="66.5332">-scanner: Scanner</text><text fill="#000000" font-family="sans-serif" font-size="14" lengthAdjust="spacing" textLength="54" x="509" y="84.1426">-file: File</text><line style="stroke:#181818;stroke-width:0.5;" x1="504" x2="631" y1="91.2188" y2="91.2188"/><text fill="#000000" font-family="sans-serif" font-size="14" lengthAdjust="spacing" textLength="47" x="509" y="109.752">+read()</text><text fill="#000000" font-family="sans-serif" font-size="14" lengthAdjust="spacing" textLength="90" x="509" y="127.3613">-readHeader()</text></g><!--MD5=[4b2d61224b33971326a22fe5d809d926]
class DataHandler--><g id="elem_DataHandler"><rect codeLine="52" fill="#F1F1F1" height="57.6094" id="DataHandler" rx="2.5" ry="2.5" style="stroke:#181818;stroke-width:0.5;" width="307" x="667" y="46"/><ellipse cx="776.75" cy="62" fill="#ADD1B2" rx="11" ry="11" style="stroke:#181818;stroke-width:1.0;"/><path d="M779.5156,57.875 Q779.6719,57.6563 779.8594,57.5469 Q780.0469,57.4375 780.2656,57.4375 Q780.6406,57.4375 780.875,57.7031 Q781.1094,57.9531 781.1094,58.5625 L781.1094,60.0156 Q781.1094,60.625 780.875,60.8906 Q780.6406,61.1563 780.2656,61.1563 Q779.9219,61.1563 779.7188,60.9531 Q779.5156,60.7656 779.4063,60.25 Q779.3594,59.8906 779.1719,59.7031 Q778.8438,59.3281 778.2344,59.1094 Q777.625,58.8906 777,58.8906 Q776.2344,58.8906 775.5938,59.2188 Q774.9688,59.5469 774.4688,60.2969 Q773.9844,61.0469 773.9844,62.0781 L773.9844,63.1719 Q773.9844,64.4063 774.875,65.2344 Q775.7656,66.0469 777.3594,66.0469 Q778.2969,66.0469 778.9531,65.7969 Q779.3438,65.6406 779.7656,65.2031 Q780.0313,64.9375 780.1719,64.8594 Q780.3281,64.7813 780.5313,64.7813 Q780.8594,64.7813 781.1094,65.0469 Q781.375,65.2969 781.375,65.6406 Q781.375,65.9844 781.0313,66.3906 Q780.5313,66.9688 779.7344,67.2969 Q778.6563,67.75 777.3594,67.75 Q775.8438,67.75 774.6406,67.125 Q773.6563,66.625 772.9688,65.5625 Q772.2813,64.4844 772.2813,63.2031 L772.2813,62.0469 Q772.2813,60.7188 772.8906,59.5781 Q773.5156,58.4219 774.6094,57.8125 Q775.7031,57.1875 776.9375,57.1875 Q777.6719,57.1875 778.3125,57.3594 Q778.9688,57.5156 779.5156,57.875 Z " fill="#000000"/><text fill="#000000" font-family="sans-serif" font-size="14" lengthAdjust="spacing" textLength="79" x="797.25" y="67.7285">DataHandler</text><line style="stroke:#181818;stroke-width:0.5;" x1="668" x2="973" y1="78" y2="78"/><text fill="#000000" font-family="sans-serif" font-size="14" lengthAdjust="spacing" textLength="295" x="673" y="96.5332">+execute(List&lt;? extends Map&lt;String, String&gt;&gt;)</text></g><!--MD5=[47de47a8b5f06cbc5e036fae0a9149b7]
class Iterable--><g id="elem_Iterable"><rect codeLine="56" fill="#F1F1F1" height="32" id="Iterable" rx="2.5" ry="2.5" style="stroke:#181818;stroke-width:0.5;" width="80" x="349.5" y="745"/><ellipse cx="364.5" cy="761" fill="#B4A7E5" rx="11" ry="11" style="stroke:#181818;stroke-width:1.0;"/><path d="M365.4531,757.6406 L365.4531,764.2969 L367.1719,764.2969 Q367.7813,764.2969 368.0469,764.5313 Q368.3125,764.7656 368.3125,765.1563 Q368.3125,765.5313 368.0469,765.7656 Q367.7813,766 367.1719,766 L362.0313,766 Q361.4219,766 361.1563,765.7656 Q360.8906,765.5313 360.8906,765.1406 Q360.8906,764.7656 361.1563,764.5313 Q361.4219,764.2969 362.0313,764.2969 L363.75,764.2969 L363.75,757.6406 L362.0313,757.6406 Q361.4219,757.6406 361.1563,757.4063 Q360.8906,757.1719 360.8906,756.7813 Q360.8906,756.4063 361.1563,756.1719 Q361.4219,755.9375 362.0313,755.9375 L367.1719,755.9375 Q367.7813,755.9375 368.0469,756.1719 Q368.3125,756.4063 368.3125,756.7813 Q368.3125,757.1719 368.0469,757.4063 Q367.7813,757.6406 367.1719,757.6406 L365.4531,757.6406 Z " fill="#000000"/><text fill="#000000" font-family="sans-serif" font-size="14" font-style="italic" lengthAdjust="spacing" textLength="48" x="378.5" y="766.7285">Iterable</text></g><!--MD5=[7a4729d26b999f6a4650b01106c103c5]
class Comparable--><g id="elem_Comparable"><rect codeLine="58" fill="#F1F1F1" height="32" id="Comparable" rx="2.5" ry="2.5" style="stroke:#181818;stroke-width:0.5;" width="109" x="117" y="899"/><ellipse cx="132" cy="915" fill="#B4A7E5" rx="11" ry="11" style="stroke:#181818;stroke-width:1.0;"/><path d="M132.9531,911.6406 L132.9531,918.2969 L134.6719,918.2969 Q135.2813,918.2969 135.5469,918.5313 Q135.8125,918.7656 135.8125,919.1563 Q135.8125,919.5313 135.5469,919.7656 Q135.2813,920 134.6719,920 L129.5313,920 Q128.9219,920 128.6563,919.7656 Q128.3906,919.5313 128.3906,919.1406 Q128.3906,918.7656 128.6563,918.5313 Q128.9219,918.2969 129.5313,918.2969 L131.25,918.2969 L131.25,911.6406 L129.5313,911.6406 Q128.9219,911.6406 128.6563,911.4063 Q128.3906,911.1719 128.3906,910.7813 Q128.3906,910.4063 128.6563,910.1719 Q128.9219,909.9375 129.5313,909.9375 L134.6719,909.9375 Q135.2813,909.9375 135.5469,910.1719 Q135.8125,910.4063 135.8125,910.7813 Q135.8125,911.1719 135.5469,911.4063 Q135.2813,911.6406 134.6719,911.6406 L132.9531,911.6406 Z " fill="#000000"/><text fill="#000000" font-family="sans-serif" font-size="14" font-style="italic" lengthAdjust="spacing" textLength="77" x="146" y="920.7285">Comparable</text></g><!--MD5=[d63cc3c675ca7bbb279b8b1467437af4]
reverse link Container to FruitData--><g id="link_Container_FruitData"><path codeLine="60" d="M332.73,155.25 C323.24,176.89 313.05,200.11 303.89,220.99 " fill="none" id="Container-backto-FruitData" style="stroke:#181818;stroke-width:1.0;"/><polygon fill="none" points="338.07,143.08,331.9983,146.9702,333.2539,154.0712,339.3257,150.1809,338.07,143.08" style="stroke:#181818;stroke-width:1.0;"/><text fill="#000000" font-family="sans-serif" font-size="13" lengthAdjust="spacing" textLength="49" x="325.5" y="187.4951">contains</text><text fill="#000000" font-family="sans-serif" font-size="13" lengthAdjust="spacing" textLength="7" x="327.6741" y="164.4366">1</text><text fill="#000000" font-family="sans-serif" font-size="13" lengthAdjust="spacing" textLength="20" x="286.0108" y="210.1882">0..*</text></g><!--MD5=[5a35a5d2ff005f113f0492dd75a2f5ac]
reverse link FruitData to CountryData--><g id="link_FruitData_CountryData"><path codeLine="62" d="M238.97,369.18 C229.48,390.3 219.2,413.22 209.59,434.64 " fill="none" id="FruitData-backto-CountryData" style="stroke:#181818;stroke-width:1.0;"/><polygon fill="none" points="244.29,357.31,238.182,361.1431,239.3711,368.2555,245.4791,364.4224,244.29,357.31" style="stroke:#181818;stroke-width:1.0;"/><text fill="#000000" font-family="sans-serif" font-size="13" lengthAdjust="spacing" textLength="49" x="230.5" y="401.4951">contains</text><text fill="#000000" font-family="sans-serif" font-size="13" lengthAdjust="spacing" textLength="7" x="233.8137" y="378.6903">1</text><text fill="#000000" font-family="sans-serif" font-size="13" lengthAdjust="spacing" textLength="20" x="192.004" y="424.0727">0..*</text></g><!--MD5=[38360080dd61d2b58a58b9e3f66d4573]
reverse link CountryData to YearProductionData--><g id="link_CountryData_YearProductionData"><path codeLine="64" d="M171.5,619.48 C171.5,640.96 171.5,663.38 171.5,683.85 " fill="none" id="CountryData-backto-YearProductionData" style="stroke:#181818;stroke-width:1.0;"/><polygon fill="none" points="171.5,606.26,167.5,612.26,171.5,618.26,175.5,612.26,171.5,606.26" style="stroke:#181818;stroke-width:1.0;"/><text fill="#000000" font-family="sans-serif" font-size="13" lengthAdjust="spacing" textLength="49" x="172.5" y="650.4951">contains</text><text fill="#000000" font-family="sans-serif" font-size="13" lengthAdjust="spacing" textLength="7" x="164.1992" y="627.8163">1</text><text fill="#000000" font-family="sans-serif" font-size="13" lengthAdjust="spacing" textLength="20" x="150.5469" y="673.2624">0..*</text></g><!--MD5=[35e60d079f099a32ccea719bce77b0fe]
link YearProductionData to Comparable--><g id="link_YearProductionData_Comparable"><path codeLine="66" d="M171.5,838.45 C171.5,852.5 171.5,866.54 171.5,878.63 " fill="none" id="YearProductionData-to-Comparable" style="stroke:#181818;stroke-width:1.0;"/><polygon fill="none" points="178.5,878.98,171.5,898.98,164.5,878.98,178.5,878.98" style="stroke:#181818;stroke-width:1.0;"/></g><!--MD5=[cd192b455def96fb040f78d454347cf1]
link CountryData to Iterable--><g id="link_CountryData_Iterable"><path codeLine="68" d="M248.97,606.26 C288.21,649.19 333.41,698.64 361.72,729.61 " fill="none" id="CountryData-to-Iterable" style="stroke:#181818;stroke-width:1.0;"/><polygon fill="none" points="367.24,725.27,375.57,744.76,356.91,734.72,367.24,725.27" style="stroke:#181818;stroke-width:1.0;"/></g><!--MD5=[ca3f223a6af7e2526a23611aca7577a7]
link FruitData to Iterable--><g id="link_FruitData_Iterable"><path codeLine="70" d="M318.21,357.26 C331.66,380.95 345.12,408.34 353.5,435 C385.43,536.58 389.9,663.78 390,724.52 " fill="none" id="FruitData-to-Iterable" style="stroke:#181818;stroke-width:1.0;"/><polygon fill="none" points="397,724.72,389.87,744.67,383,724.63,397,724.72" style="stroke:#181818;stroke-width:1.0;"/></g><!--MD5=[83ef6b17293f47511bd8c6740db18f2a]
link Container to Iterable--><g id="link_Container_Iterable"><path codeLine="72" d="M399.89,143.03 C409.86,167.04 419.51,194.69 424.5,221 C436.81,285.97 426.03,567.56 414.5,654 C411.29,678.09 405,704.7 399.53,725.24 " fill="none" id="Container-to-Iterable" style="stroke:#181818;stroke-width:1.0;"/><polygon fill="none" points="406.22,727.34,394.11,744.73,392.73,723.59,406.22,727.34" style="stroke:#181818;stroke-width:1.0;"/></g><!--MD5=[2dfe74b17e03f45d7039c087027b35bd]
@startuml CD

skinparam classAttributeIconSize 0
hide empty members

class Container {
  -data: Map<String, FruitData>

  +addFruitData(fruit, fruitData)
  +getFruitData(fruit)
  +getFruits()
  +iterator()
}

class FruitData {
  -fruitData: Map<String, CountryData>

  +addCountryData(country, countryData)
  +getCountryData(country)
  +getCountries()
  +iterator()
}

class CountryData {
  -productionData: SortedSet<YearProductionData>

  +addProductionData(year, quantity)
  +getProductionData(year)
  +getProductionYears()
  +getOverallProductionQuantity()
  +size()
  +iterator()
}

class YearProductionData {
  -year: int
  -quantity: int

  +getYear()
  +getQuantity()
  +equals(other)
  +compareTo(other)
}

class CSVReader {
  -scanner: Scanner
  -file: File

  +read()
  -readHeader()
}

class DataHandler{
  +execute(List<? extends Map<String, String>>)
}

interface Iterable

interface Comparable

Container "1" o- - "0..*" FruitData : contains

FruitData "1" o- - "0..*" CountryData : contains

CountryData "1" o- - "0..*" YearProductionData : contains

YearProductionData - -|> Comparable

CountryData - -|> Iterable

FruitData - -|> Iterable

Container - -|> Iterable

@enduml

PlantUML version 1.2022.7(Mon Aug 22 18:01:30 WEST 2022)
(GPL source distribution)
Java Runtime: Java(TM) SE Runtime Environment
JVM: Java HotSpot(TM) 64-Bit Server VM
Default Encoding: Cp1252
Language: pt
Country: PT
--></g></svg>