<?xml version="1.0" encoding="UTF-8" standalone="no"?><svg xmlns="http://www.w3.org/2000/svg" xmlns:xlink="http://www.w3.org/1999/xlink" contentStyleType="text/css" height="1257px" preserveAspectRatio="none" style="width:1517px;height:1257px;background:#FFFFFF;" version="1.1" viewBox="0 0 1517 1257" width="1517px" zoomAndPan="magnify"><defs/><g><!--MD5=[e9a58730c562b34349daa605d1ed6662]
class Container--><g id="elem_Container"><rect codeLine="5" fill="#F1F1F1" height="129.4844" id="Container" rx="2.5" ry="2.5" style="stroke:#181818;stroke-width:0.5;" width="219" x="394" y="335.5"/><ellipse cx="465.75" cy="351.5" fill="#ADD1B2" rx="11" ry="11" style="stroke:#181818;stroke-width:1.0;"/><path d="M468.7188,357.1406 Q468.1406,357.4375 467.5,357.5781 Q466.8594,357.7344 466.1563,357.7344 Q463.6563,357.7344 462.3281,356.0938 Q461.0156,354.4375 461.0156,351.3125 Q461.0156,348.1875 462.3281,346.5313 Q463.6563,344.875 466.1563,344.875 Q466.8594,344.875 467.5,345.0313 Q468.1563,345.1875 468.7188,345.4844 L468.7188,348.2031 Q468.0938,347.625 467.5,347.3594 Q466.9063,347.0781 466.2813,347.0781 Q464.9375,347.0781 464.25,348.1563 Q463.5625,349.2188 463.5625,351.3125 Q463.5625,353.4063 464.25,354.4844 Q464.9375,355.5469 466.2813,355.5469 Q466.9063,355.5469 467.5,355.2813 Q468.0938,355 468.7188,354.4219 L468.7188,357.1406 Z " fill="#000000"/><text fill="#000000" font-family="sans-serif" font-size="14" lengthAdjust="spacing" textLength="67" x="486.25" y="356.3467">Container</text><line style="stroke:#181818;stroke-width:0.5;" x1="395" x2="612" y1="367.5" y2="367.5"/><text fill="#000000" font-family="sans-serif" font-size="14" lengthAdjust="spacing" textLength="207" x="400" y="384.4951">-data: Map&lt;String, FruitData&gt;</text><line style="stroke:#181818;stroke-width:0.5;" x1="395" x2="612" y1="391.7969" y2="391.7969"/><text fill="#000000" font-family="sans-serif" font-size="14" lengthAdjust="spacing" textLength="202" x="400" y="408.792">+addFruitData(fruit, fruitData)</text><text fill="#000000" font-family="sans-serif" font-size="14" lengthAdjust="spacing" textLength="133" x="400" y="425.0889">+getFruitData(fruit)</text><text fill="#000000" font-family="sans-serif" font-size="14" lengthAdjust="spacing" textLength="83" x="400" y="441.3857">+getFruits()</text><text fill="#000000" font-family="sans-serif" font-size="14" lengthAdjust="spacing" textLength="71" x="400" y="457.6826">+iterator()</text></g><!--MD5=[f9749dc75bf6faa5a638f9c61b86e169]
class FruitData--><g id="elem_FruitData"><rect codeLine="14" fill="#F1F1F1" height="129.4844" id="FruitData" rx="2.5" ry="2.5" style="stroke:#181818;stroke-width:0.5;" width="290" x="229.5" y="566"/><ellipse cx="339.25" cy="582" fill="#ADD1B2" rx="11" ry="11" style="stroke:#181818;stroke-width:1.0;"/><path d="M342.2188,587.6406 Q341.6406,587.9375 341,588.0781 Q340.3594,588.2344 339.6563,588.2344 Q337.1563,588.2344 335.8281,586.5938 Q334.5156,584.9375 334.5156,581.8125 Q334.5156,578.6875 335.8281,577.0313 Q337.1563,575.375 339.6563,575.375 Q340.3594,575.375 341,575.5313 Q341.6563,575.6875 342.2188,575.9844 L342.2188,578.7031 Q341.5938,578.125 341,577.8594 Q340.4063,577.5781 339.7813,577.5781 Q338.4375,577.5781 337.75,578.6563 Q337.0625,579.7188 337.0625,581.8125 Q337.0625,583.9063 337.75,584.9844 Q338.4375,586.0469 339.7813,586.0469 Q340.4063,586.0469 341,585.7813 Q341.5938,585.5 342.2188,584.9219 L342.2188,587.6406 Z " fill="#000000"/><text fill="#000000" font-family="sans-serif" font-size="14" lengthAdjust="spacing" textLength="62" x="359.75" y="586.8467">FruitData</text><line style="stroke:#181818;stroke-width:0.5;" x1="230.5" x2="518.5" y1="598" y2="598"/><text fill="#000000" font-family="sans-serif" font-size="14" lengthAdjust="spacing" textLength="259" x="235.5" y="614.9951">-fruitData: Map&lt;String, CountryData&gt;</text><line style="stroke:#181818;stroke-width:0.5;" x1="230.5" x2="518.5" y1="622.2969" y2="622.2969"/><text fill="#000000" font-family="sans-serif" font-size="14" lengthAdjust="spacing" textLength="278" x="235.5" y="639.292">+addCountryData(country, countryData)</text><text fill="#000000" font-family="sans-serif" font-size="14" lengthAdjust="spacing" textLength="183" x="235.5" y="655.5889">+getCountryData(country)</text><text fill="#000000" font-family="sans-serif" font-size="14" lengthAdjust="spacing" textLength="112" x="235.5" y="671.8857">+getCountries()</text><text fill="#000000" font-family="sans-serif" font-size="14" lengthAdjust="spacing" textLength="71" x="235.5" y="688.1826">+iterator()</text></g><!--MD5=[7fc7cbba852adc009bf6f0cff1d89c87]
class CountryData--><g id="elem_CountryData"><rect codeLine="23" fill="#F1F1F1" height="162.0781" id="CountryData" rx="2.5" ry="2.5" style="stroke:#181818;stroke-width:0.5;" width="364" x="84.5" y="772"/><ellipse cx="219.25" cy="788" fill="#ADD1B2" rx="11" ry="11" style="stroke:#181818;stroke-width:1.0;"/><path d="M222.2188,793.6406 Q221.6406,793.9375 221,794.0781 Q220.3594,794.2344 219.6563,794.2344 Q217.1563,794.2344 215.8281,792.5938 Q214.5156,790.9375 214.5156,787.8125 Q214.5156,784.6875 215.8281,783.0313 Q217.1563,781.375 219.6563,781.375 Q220.3594,781.375 221,781.5313 Q221.6563,781.6875 222.2188,781.9844 L222.2188,784.7031 Q221.5938,784.125 221,783.8594 Q220.4063,783.5781 219.7813,783.5781 Q218.4375,783.5781 217.75,784.6563 Q217.0625,785.7188 217.0625,787.8125 Q217.0625,789.9063 217.75,790.9844 Q218.4375,792.0469 219.7813,792.0469 Q220.4063,792.0469 221,791.7813 Q221.5938,791.5 222.2188,790.9219 L222.2188,793.6406 Z " fill="#000000"/><text fill="#000000" font-family="sans-serif" font-size="14" lengthAdjust="spacing" textLength="86" x="239.75" y="792.8467">CountryData</text><line style="stroke:#181818;stroke-width:0.5;" x1="85.5" x2="447.5" y1="804" y2="804"/><text fill="#000000" font-family="sans-serif" font-size="14" lengthAdjust="spacing" textLength="352" x="90.5" y="820.9951">-productionData: SortedSet&lt;YearProductionData&gt;</text><line style="stroke:#181818;stroke-width:0.5;" x1="85.5" x2="447.5" y1="828.2969" y2="828.2969"/><text fill="#000000" font-family="sans-serif" font-size="14" lengthAdjust="spacing" textLength="247" x="90.5" y="845.292">+addProductionData(year, quantity)</text><text fill="#000000" font-family="sans-serif" font-size="14" lengthAdjust="spacing" textLength="181" x="90.5" y="861.5889">+getProductionData(year)</text><text fill="#000000" font-family="sans-serif" font-size="14" lengthAdjust="spacing" textLength="159" x="90.5" y="877.8857">+getProductionYears()</text><text fill="#000000" font-family="sans-serif" font-size="14" lengthAdjust="spacing" textLength="223" x="90.5" y="894.1826">+getOverallProductionQuantity()</text><text fill="#000000" font-family="sans-serif" font-size="14" lengthAdjust="spacing" textLength="50" x="90.5" y="910.4795">+size()</text><text fill="#000000" font-family="sans-serif" font-size="14" lengthAdjust="spacing" textLength="71" x="90.5" y="926.7764">+iterator()</text></g><!--MD5=[ad333e840a12d1559da41e79a89223e2]
class YearProductionData--><g id="elem_YearProductionData"><rect codeLine="34" fill="#F1F1F1" height="145.7813" id="YearProductionData" rx="2.5" ry="2.5" style="stroke:#181818;stroke-width:0.5;" width="170" x="181.5" y="1011"/><ellipse cx="196.5" cy="1027" fill="#ADD1B2" rx="11" ry="11" style="stroke:#181818;stroke-width:1.0;"/><path d="M199.4688,1032.6406 Q198.8906,1032.9375 198.25,1033.0781 Q197.6094,1033.2344 196.9063,1033.2344 Q194.4063,1033.2344 193.0781,1031.5938 Q191.7656,1029.9375 191.7656,1026.8125 Q191.7656,1023.6875 193.0781,1022.0313 Q194.4063,1020.375 196.9063,1020.375 Q197.6094,1020.375 198.25,1020.5313 Q198.9063,1020.6875 199.4688,1020.9844 L199.4688,1023.7031 Q198.8438,1023.125 198.25,1022.8594 Q197.6563,1022.5781 197.0313,1022.5781 Q195.6875,1022.5781 195,1023.6563 Q194.3125,1024.7188 194.3125,1026.8125 Q194.3125,1028.9063 195,1029.9844 Q195.6875,1031.0469 197.0313,1031.0469 Q197.6563,1031.0469 198.25,1030.7813 Q198.8438,1030.5 199.4688,1029.9219 L199.4688,1032.6406 Z " fill="#000000"/><text fill="#000000" font-family="sans-serif" font-size="14" lengthAdjust="spacing" textLength="138" x="210.5" y="1031.8467">YearProductionData</text><line style="stroke:#181818;stroke-width:0.5;" x1="182.5" x2="350.5" y1="1043" y2="1043"/><text fill="#000000" font-family="sans-serif" font-size="14" lengthAdjust="spacing" textLength="60" x="187.5" y="1059.9951">-year: int</text><text fill="#000000" font-family="sans-serif" font-size="14" lengthAdjust="spacing" textLength="86" x="187.5" y="1076.292">-quantity: int</text><line style="stroke:#181818;stroke-width:0.5;" x1="182.5" x2="350.5" y1="1083.5938" y2="1083.5938"/><text fill="#000000" font-family="sans-serif" font-size="14" lengthAdjust="spacing" textLength="76" x="187.5" y="1100.5889">+getYear()</text><text fill="#000000" font-family="sans-serif" font-size="14" lengthAdjust="spacing" textLength="102" x="187.5" y="1116.8857">+getQuantity()</text><text fill="#000000" font-family="sans-serif" font-size="14" lengthAdjust="spacing" textLength="105" x="187.5" y="1133.1826">+equals(other)</text><text fill="#000000" font-family="sans-serif" font-size="14" lengthAdjust="spacing" textLength="138" x="187.5" y="1149.4795">+compareTo(other)</text></g><!--MD5=[93d2be21c1fc4bd5769bea53314c28f3]
class GreatestDifferenceResult--><g id="elem_GreatestDifferenceResult"><rect codeLine="44" fill="#F1F1F1" height="178.375" id="GreatestDifferenceResult" rx="2.5" ry="2.5" style="stroke:#181818;stroke-width:0.5;" width="207" x="7" y="311"/><ellipse cx="22" cy="327" fill="#ADD1B2" rx="11" ry="11" style="stroke:#181818;stroke-width:1.0;"/><path d="M24.9688,332.6406 Q24.3906,332.9375 23.75,333.0781 Q23.1094,333.2344 22.4063,333.2344 Q19.9063,333.2344 18.5781,331.5938 Q17.2656,329.9375 17.2656,326.8125 Q17.2656,323.6875 18.5781,322.0313 Q19.9063,320.375 22.4063,320.375 Q23.1094,320.375 23.75,320.5313 Q24.4063,320.6875 24.9688,320.9844 L24.9688,323.7031 Q24.3438,323.125 23.75,322.8594 Q23.1563,322.5781 22.5313,322.5781 Q21.1875,322.5781 20.5,323.6563 Q19.8125,324.7188 19.8125,326.8125 Q19.8125,328.9063 20.5,329.9844 Q21.1875,331.0469 22.5313,331.0469 Q23.1563,331.0469 23.75,330.7813 Q24.3438,330.5 24.9688,329.9219 L24.9688,332.6406 Z " fill="#000000"/><text fill="#000000" font-family="sans-serif" font-size="14" lengthAdjust="spacing" textLength="175" x="36" y="331.8467">GreatestDifferenceResult</text><line style="stroke:#181818;stroke-width:0.5;" x1="8" x2="213" y1="343" y2="343"/><text fill="#000000" font-family="sans-serif" font-size="14" lengthAdjust="spacing" textLength="80" x="13" y="359.9951">-fruit: String</text><text fill="#000000" font-family="sans-serif" font-size="14" lengthAdjust="spacing" textLength="93" x="13" y="376.292">-startYear: int</text><text fill="#000000" font-family="sans-serif" font-size="14" lengthAdjust="spacing" textLength="89" x="13" y="392.5889">-endYear: int</text><text fill="#000000" font-family="sans-serif" font-size="14" lengthAdjust="spacing" textLength="100" x="13" y="408.8857">-difference: int</text><line style="stroke:#181818;stroke-width:0.5;" x1="8" x2="213" y1="416.1875" y2="416.1875"/><text fill="#000000" font-family="sans-serif" font-size="14" lengthAdjust="spacing" textLength="75" x="13" y="433.1826">+getFruit()</text><text fill="#000000" font-family="sans-serif" font-size="14" lengthAdjust="spacing" textLength="108" x="13" y="449.4795">+getStartYear()</text><text fill="#000000" font-family="sans-serif" font-size="14" lengthAdjust="spacing" textLength="103" x="13" y="465.7764">+getEndYear()</text><text fill="#000000" font-family="sans-serif" font-size="14" lengthAdjust="spacing" textLength="116" x="13" y="482.0732">+getDifference()</text></g><!--MD5=[60b59e3d7d8b95aff167b5157d975660]
class CSVReader--><g id="elem_CSVReader"><rect codeLine="56" fill="#F1F1F1" height="129.4844" id="CSVReader" rx="2.5" ry="2.5" style="stroke:#181818;stroke-width:0.5;" width="170" x="1340.5" y="335.5"/><ellipse cx="1382.5" cy="351.5" fill="#ADD1B2" rx="11" ry="11" style="stroke:#181818;stroke-width:1.0;"/><path d="M1385.4688,357.1406 Q1384.8906,357.4375 1384.25,357.5781 Q1383.6094,357.7344 1382.9063,357.7344 Q1380.4063,357.7344 1379.0781,356.0938 Q1377.7656,354.4375 1377.7656,351.3125 Q1377.7656,348.1875 1379.0781,346.5313 Q1380.4063,344.875 1382.9063,344.875 Q1383.6094,344.875 1384.25,345.0313 Q1384.9063,345.1875 1385.4688,345.4844 L1385.4688,348.2031 Q1384.8438,347.625 1384.25,347.3594 Q1383.6563,347.0781 1383.0313,347.0781 Q1381.6875,347.0781 1381,348.1563 Q1380.3125,349.2188 1380.3125,351.3125 Q1380.3125,353.4063 1381,354.4844 Q1381.6875,355.5469 1383.0313,355.5469 Q1383.6563,355.5469 1384.25,355.2813 Q1384.8438,355 1385.4688,354.4219 L1385.4688,357.1406 Z " fill="#000000"/><text fill="#000000" font-family="sans-serif" font-size="14" lengthAdjust="spacing" textLength="78" x="1402.5" y="356.3467">CSVReader</text><line style="stroke:#181818;stroke-width:0.5;" x1="1341.5" x2="1509.5" y1="367.5" y2="367.5"/><text fill="#000000" font-family="sans-serif" font-size="14" lengthAdjust="spacing" textLength="127" x="1346.5" y="384.4951">-scanner: Scanner</text><line style="stroke:#181818;stroke-width:0.5;" x1="1341.5" x2="1509.5" y1="391.7969" y2="391.7969"/><text fill="#000000" font-family="sans-serif" font-size="14" lengthAdjust="spacing" textLength="158" x="1346.5" y="408.792">+CSVReader(filename)</text><text fill="#000000" font-family="sans-serif" font-size="14" lengthAdjust="spacing" textLength="4" x="1346.5" y="425.0889"> </text><text fill="#000000" font-family="sans-serif" font-size="14" lengthAdjust="spacing" textLength="96" x="1346.5" y="441.3857">-readHeader()</text><text fill="#000000" font-family="sans-serif" font-size="14" lengthAdjust="spacing" textLength="53" x="1346.5" y="457.6826">+read()</text></g><!--MD5=[82eefb8b05be56e7eb7b882684d04dc0]
class GreatestDifference--><g id="elem_GreatestDifference"><rect codeLine="65" fill="#F1F1F1" height="96.8906" id="GreatestDifference" rx="2.5" ry="2.5" style="stroke:#181818;stroke-width:0.5;" width="163" x="29" y="72"/><ellipse cx="44" cy="88" fill="#ADD1B2" rx="11" ry="11" style="stroke:#181818;stroke-width:1.0;"/><path d="M46.9688,93.6406 Q46.3906,93.9375 45.75,94.0781 Q45.1094,94.2344 44.4063,94.2344 Q41.9063,94.2344 40.5781,92.5938 Q39.2656,90.9375 39.2656,87.8125 Q39.2656,84.6875 40.5781,83.0313 Q41.9063,81.375 44.4063,81.375 Q45.1094,81.375 45.75,81.5313 Q46.4063,81.6875 46.9688,81.9844 L46.9688,84.7031 Q46.3438,84.125 45.75,83.8594 Q45.1563,83.5781 44.5313,83.5781 Q43.1875,83.5781 42.5,84.6563 Q41.8125,85.7188 41.8125,87.8125 Q41.8125,89.9063 42.5,90.9844 Q43.1875,92.0469 44.5313,92.0469 Q45.1563,92.0469 45.75,91.7813 Q46.3438,91.5 46.9688,90.9219 L46.9688,93.6406 Z " fill="#000000"/><text fill="#000000" font-family="sans-serif" font-size="14" lengthAdjust="spacing" textLength="131" x="58" y="92.8467">GreatestDifference</text><line style="stroke:#181818;stroke-width:0.5;" x1="30" x2="191" y1="104" y2="104"/><text fill="#000000" font-family="sans-serif" font-size="14" lengthAdjust="spacing" textLength="111" x="35" y="120.9951">-data: Container</text><text fill="#000000" font-family="sans-serif" font-size="14" lengthAdjust="spacing" textLength="106" x="35" y="137.292">-country: String</text><line style="stroke:#181818;stroke-width:0.5;" x1="30" x2="191" y1="144.5938" y2="144.5938"/><text fill="#000000" font-family="sans-serif" font-size="14" lengthAdjust="spacing" textLength="78" x="35" y="161.5889">+execute()</text></g><!--MD5=[4b2d61224b33971326a22fe5d809d926]
class DataHandler--><g id="elem_DataHandler"><rect codeLine="72" fill="#F1F1F1" height="56.2969" id="DataHandler" rx="2.5" ry="2.5" style="stroke:#181818;stroke-width:0.5;" width="120" x="1365.5" y="92.5"/><ellipse cx="1381.85" cy="108.5" fill="#ADD1B2" rx="11" ry="11" style="stroke:#181818;stroke-width:1.0;"/><path d="M1384.8188,114.1406 Q1384.2406,114.4375 1383.6,114.5781 Q1382.9594,114.7344 1382.2563,114.7344 Q1379.7563,114.7344 1378.4281,113.0938 Q1377.1156,111.4375 1377.1156,108.3125 Q1377.1156,105.1875 1378.4281,103.5313 Q1379.7563,101.875 1382.2563,101.875 Q1382.9594,101.875 1383.6,102.0313 Q1384.2563,102.1875 1384.8188,102.4844 L1384.8188,105.2031 Q1384.1938,104.625 1383.6,104.3594 Q1383.0063,104.0781 1382.3813,104.0781 Q1381.0375,104.0781 1380.35,105.1563 Q1379.6625,106.2188 1379.6625,108.3125 Q1379.6625,110.4063 1380.35,111.4844 Q1381.0375,112.5469 1382.3813,112.5469 Q1383.0063,112.5469 1383.6,112.2813 Q1384.1938,112 1384.8188,111.4219 L1384.8188,114.1406 Z " fill="#000000"/><text fill="#000000" font-family="sans-serif" font-size="14" lengthAdjust="spacing" textLength="85" x="1396.15" y="113.3467">DataHandler</text><line style="stroke:#181818;stroke-width:0.5;" x1="1366.5" x2="1484.5" y1="124.5" y2="124.5"/><text fill="#000000" font-family="sans-serif" font-size="14" lengthAdjust="spacing" textLength="108" x="1371.5" y="141.4951">+execute(data)</text></g><!--MD5=[8fec355efe8bf6b30f56ea26e160e6ad]
class CountrySetWithHigherProduction--><g id="elem_CountrySetWithHigherProduction"><rect codeLine="76" fill="#F1F1F1" height="145.7813" id="CountrySetWithHigherProduction" rx="2.5" ry="2.5" style="stroke:#181818;stroke-width:0.5;" width="259" x="227" y="47.5"/><ellipse cx="242" cy="63.5" fill="#ADD1B2" rx="11" ry="11" style="stroke:#181818;stroke-width:1.0;"/><path d="M244.9688,69.1406 Q244.3906,69.4375 243.75,69.5781 Q243.1094,69.7344 242.4063,69.7344 Q239.9063,69.7344 238.5781,68.0938 Q237.2656,66.4375 237.2656,63.3125 Q237.2656,60.1875 238.5781,58.5313 Q239.9063,56.875 242.4063,56.875 Q243.1094,56.875 243.75,57.0313 Q244.4063,57.1875 244.9688,57.4844 L244.9688,60.2031 Q244.3438,59.625 243.75,59.3594 Q243.1563,59.0781 242.5313,59.0781 Q241.1875,59.0781 240.5,60.1563 Q239.8125,61.2188 239.8125,63.3125 Q239.8125,65.4063 240.5,66.4844 Q241.1875,67.5469 242.5313,67.5469 Q243.1563,67.5469 243.75,67.2813 Q244.3438,67 244.9688,66.4219 L244.9688,69.1406 Z " fill="#000000"/><text fill="#000000" font-family="sans-serif" font-size="14" lengthAdjust="spacing" textLength="227" x="256" y="68.3467">CountrySetWithHigherProduction</text><line style="stroke:#181818;stroke-width:0.5;" x1="228" x2="485" y1="79.5" y2="79.5"/><text fill="#000000" font-family="sans-serif" font-size="14" lengthAdjust="spacing" textLength="146" x="233" y="96.4951">-container: Container</text><text fill="#000000" font-family="sans-serif" font-size="14" lengthAdjust="spacing" textLength="97" x="233" y="112.792">-quantityQ: int</text><line style="stroke:#181818;stroke-width:0.5;" x1="228" x2="485" y1="120.0938" y2="120.0938"/><text fill="#000000" font-family="sans-serif" font-size="14" lengthAdjust="spacing" textLength="76" x="233" y="137.0889">-sortArray()</text><text fill="#000000" font-family="sans-serif" font-size="14" lengthAdjust="spacing" textLength="213" x="233" y="153.3857">-getProductionQtyPerCountry()</text><text fill="#000000" font-family="sans-serif" font-size="14" lengthAdjust="spacing" textLength="4" x="233" y="169.6826"> </text><text fill="#000000" font-family="sans-serif" font-size="14" lengthAdjust="spacing" textLength="78" x="233" y="185.9795">+execute()</text></g><!--MD5=[588484c1f8ca180080451fcc2272d36d]
class CountriesWithProductionGrowth--><g id="elem_CountriesWithProductionGrowth"><rect codeLine="86" fill="#F1F1F1" height="96.8906" id="CountriesWithProductionGrowth" rx="2.5" ry="2.5" style="stroke:#181818;stroke-width:0.5;" width="254" x="521.5" y="72"/><ellipse cx="536.5" cy="88" fill="#ADD1B2" rx="11" ry="11" style="stroke:#181818;stroke-width:1.0;"/><path d="M539.4688,93.6406 Q538.8906,93.9375 538.25,94.0781 Q537.6094,94.2344 536.9063,94.2344 Q534.4063,94.2344 533.0781,92.5938 Q531.7656,90.9375 531.7656,87.8125 Q531.7656,84.6875 533.0781,83.0313 Q534.4063,81.375 536.9063,81.375 Q537.6094,81.375 538.25,81.5313 Q538.9063,81.6875 539.4688,81.9844 L539.4688,84.7031 Q538.8438,84.125 538.25,83.8594 Q537.6563,83.5781 537.0313,83.5781 Q535.6875,83.5781 535,84.6563 Q534.3125,85.7188 534.3125,87.8125 Q534.3125,89.9063 535,90.9844 Q535.6875,92.0469 537.0313,92.0469 Q537.6563,92.0469 538.25,91.7813 Q538.8438,91.5 539.4688,90.9219 L539.4688,93.6406 Z " fill="#000000"/><text fill="#000000" font-family="sans-serif" font-size="14" lengthAdjust="spacing" textLength="222" x="550.5" y="92.8467">CountriesWithProductionGrowth</text><line style="stroke:#181818;stroke-width:0.5;" x1="522.5" x2="774.5" y1="104" y2="104"/><text fill="#000000" font-family="sans-serif" font-size="14" lengthAdjust="spacing" textLength="111" x="527.5" y="120.9951">-data: Container</text><text fill="#000000" font-family="sans-serif" font-size="14" lengthAdjust="spacing" textLength="80" x="527.5" y="137.292">-fruit: String</text><line style="stroke:#181818;stroke-width:0.5;" x1="522.5" x2="774.5" y1="144.5938" y2="144.5938"/><text fill="#000000" font-family="sans-serif" font-size="14" lengthAdjust="spacing" textLength="78" x="527.5" y="161.5889">+execute()</text></g><!--MD5=[ac912ef1b7a0f0dafb473a685f7873a9]
class CountriesWithGreaterProduction--><g id="elem_CountriesWithGreaterProduction"><rect codeLine="93" fill="#F1F1F1" height="227.2656" id="CountriesWithGreaterProduction" rx="2.5" ry="2.5" style="stroke:#181818;stroke-width:0.5;" width="520" x="810.5" y="7"/><ellipse cx="954.25" cy="23" fill="#ADD1B2" rx="11" ry="11" style="stroke:#181818;stroke-width:1.0;"/><path d="M957.2188,28.6406 Q956.6406,28.9375 956,29.0781 Q955.3594,29.2344 954.6563,29.2344 Q952.1563,29.2344 950.8281,27.5938 Q949.5156,25.9375 949.5156,22.8125 Q949.5156,19.6875 950.8281,18.0313 Q952.1563,16.375 954.6563,16.375 Q955.3594,16.375 956,16.5313 Q956.6563,16.6875 957.2188,16.9844 L957.2188,19.7031 Q956.5938,19.125 956,18.8594 Q955.4063,18.5781 954.7813,18.5781 Q953.4375,18.5781 952.75,19.6563 Q952.0625,20.7188 952.0625,22.8125 Q952.0625,24.9063 952.75,25.9844 Q953.4375,27.0469 954.7813,27.0469 Q955.4063,27.0469 956,26.7813 Q956.5938,26.5 957.2188,25.9219 L957.2188,28.6406 Z " fill="#000000"/><text fill="#000000" font-family="sans-serif" font-size="14" lengthAdjust="spacing" textLength="224" x="974.75" y="27.8467">CountriesWithGreaterProduction</text><line style="stroke:#181818;stroke-width:0.5;" x1="811.5" x2="1329.5" y1="39" y2="39"/><text fill="#000000" font-family="sans-serif" font-size="14" lengthAdjust="spacing" textLength="111" x="816.5" y="55.9951">-data: Container</text><text fill="#000000" font-family="sans-serif" font-size="14" lengthAdjust="spacing" textLength="80" x="816.5" y="72.292">-fruit: String</text><text fill="#000000" font-family="sans-serif" font-size="14" lengthAdjust="spacing" textLength="106" x="816.5" y="88.5889">-production: int</text><line style="stroke:#181818;stroke-width:0.5;" x1="811.5" x2="1329.5" y1="95.8906" y2="95.8906"/><text fill="#000000" font-family="sans-serif" font-size="14" lengthAdjust="spacing" textLength="241" x="816.5" y="112.8857">-sortCountryListByProduction(map)</text><text fill="#000000" font-family="sans-serif" font-size="14" lengthAdjust="spacing" textLength="239" x="816.5" y="129.1826">-convertEntryListToCountryList(list)</text><text fill="#000000" font-family="sans-serif" font-size="14" lengthAdjust="spacing" textLength="508" x="816.5" y="145.4795">-getProductionOfFirstYearWithGreaterProduction(countryData,production)</text><text fill="#000000" font-family="sans-serif" font-size="14" lengthAdjust="spacing" textLength="337" x="816.5" y="161.7764">-getCountriesWithGreaterProduction(production)</text><text fill="#000000" font-family="sans-serif" font-size="14" lengthAdjust="spacing" textLength="123" x="816.5" y="178.0732">-validateFruit(fruit)</text><text fill="#000000" font-family="sans-serif" font-size="14" lengthAdjust="spacing" textLength="217" x="816.5" y="194.3701">-validateProduction(production)</text><text fill="#000000" font-family="sans-serif" font-size="14" lengthAdjust="spacing" textLength="4" x="816.5" y="210.667"> </text><text fill="#000000" font-family="sans-serif" font-size="14" lengthAdjust="spacing" textLength="78" x="816.5" y="226.9639">+execute()</text></g><!--MD5=[47de47a8b5f06cbc5e036fae0a9149b7]
class Iterable--><g id="elem_Iterable"><rect codeLine="108" fill="#F1F1F1" height="32" id="Iterable" rx="2.5" ry="2.5" style="stroke:#181818;stroke-width:0.5;" width="84" x="459.5" y="1068"/><ellipse cx="474.5" cy="1084" fill="#B4A7E5" rx="11" ry="11" style="stroke:#181818;stroke-width:1.0;"/><path d="M470.4219,1079.7656 L470.4219,1077.6094 L477.8125,1077.6094 L477.8125,1079.7656 L475.3438,1079.7656 L475.3438,1087.8438 L477.8125,1087.8438 L477.8125,1090 L470.4219,1090 L470.4219,1087.8438 L472.8906,1087.8438 L472.8906,1079.7656 L470.4219,1079.7656 Z " fill="#000000"/><text fill="#000000" font-family="sans-serif" font-size="14" font-style="italic" lengthAdjust="spacing" textLength="52" x="488.5" y="1088.8467">Iterable</text></g><!--MD5=[7a4729d26b999f6a4650b01106c103c5]
class Comparable--><g id="elem_Comparable"><rect codeLine="110" fill="#F1F1F1" height="32" id="Comparable" rx="2.5" ry="2.5" style="stroke:#181818;stroke-width:0.5;" width="115" x="209" y="1218"/><ellipse cx="224" cy="1234" fill="#B4A7E5" rx="11" ry="11" style="stroke:#181818;stroke-width:1.0;"/><path d="M219.9219,1229.7656 L219.9219,1227.6094 L227.3125,1227.6094 L227.3125,1229.7656 L224.8438,1229.7656 L224.8438,1237.8438 L227.3125,1237.8438 L227.3125,1240 L219.9219,1240 L219.9219,1237.8438 L222.3906,1237.8438 L222.3906,1229.7656 L219.9219,1229.7656 Z " fill="#000000"/><text fill="#000000" font-family="sans-serif" font-size="14" font-style="italic" lengthAdjust="spacing" textLength="83" x="238" y="1238.8467">Comparable</text></g><!--MD5=[d63cc3c675ca7bbb279b8b1467437af4]
reverse link Container to FruitData--><g id="link_Container_FruitData"><path codeLine="112" d="M461.16,475.99 C444.77,505.03 426.2,537.93 410.46,565.8 " fill="none" id="Container-backto-FruitData" style="stroke:#181818;stroke-width:1.0;"/><polygon fill="none" points="467.57,464.65,461.1361,467.9065,461.6675,475.098,468.1014,471.8415,467.57,464.65" style="stroke:#181818;stroke-width:1.0;"/><text fill="#000000" font-family="sans-serif" font-size="13" lengthAdjust="spacing" textLength="54" x="436.5" y="532.0669">contains</text><text fill="#000000" font-family="sans-serif" font-size="13" lengthAdjust="spacing" textLength="8" x="454.9531" y="485.0389">1</text><text fill="#000000" font-family="sans-serif" font-size="13" lengthAdjust="spacing" textLength="23" x="390.1353" y="554.9508">0..*</text></g><!--MD5=[5a35a5d2ff005f113f0492dd75a2f5ac]
reverse link FruitData to CountryData--><g id="link_FruitData_CountryData"><path codeLine="114" d="M337.51,707.02 C327.27,727.93 316.11,750.71 305.74,771.88 " fill="none" id="FruitData-backto-CountryData" style="stroke:#181818;stroke-width:1.0;"/><polygon fill="none" points="343.26,695.28,337.0291,698.9099,337.9833,706.0576,344.2142,702.4277,343.26,695.28" style="stroke:#181818;stroke-width:1.0;"/><text fill="#000000" font-family="sans-serif" font-size="13" lengthAdjust="spacing" textLength="54" x="328.5" y="738.0669">contains</text><text fill="#000000" font-family="sans-serif" font-size="13" lengthAdjust="spacing" textLength="8" x="331.1854" y="715.6839">1</text><text fill="#000000" font-family="sans-serif" font-size="13" lengthAdjust="spacing" textLength="23" x="285.2106" y="761.0566">0..*</text></g><!--MD5=[38360080dd61d2b58a58b9e3f66d4573]
reverse link CountryData to YearProductionData--><g id="link_CountryData_YearProductionData"><path codeLine="116" d="M266.5,947.18 C266.5,968.46 266.5,990.75 266.5,1010.98 " fill="none" id="CountryData-backto-YearProductionData" style="stroke:#181818;stroke-width:1.0;"/><polygon fill="none" points="266.5,934.09,262.5,940.09,266.5,946.09,270.5,940.09,266.5,934.09" style="stroke:#181818;stroke-width:1.0;"/><text fill="#000000" font-family="sans-serif" font-size="13" lengthAdjust="spacing" textLength="54" x="267.5" y="977.0669">contains</text><text fill="#000000" font-family="sans-serif" font-size="13" lengthAdjust="spacing" textLength="8" x="258.1438" y="954.0494">1</text><text fill="#000000" font-family="sans-serif" font-size="13" lengthAdjust="spacing" textLength="23" x="242.3141" y="999.7614">0..*</text></g><!--MD5=[35e60d079f099a32ccea719bce77b0fe]
link YearProductionData to Comparable--><g id="link_YearProductionData_Comparable"><path codeLine="118" d="M266.5,1157.27 C266.5,1171.22 266.5,1185.25 266.5,1197.38 " fill="none" id="YearProductionData-to-Comparable" style="stroke:#181818;stroke-width:1.0;stroke-dasharray:7.0,7.0;"/><polygon fill="none" points="273.5,1197.84,266.5,1217.84,259.5,1197.84,273.5,1197.84" style="stroke:#181818;stroke-width:1.0;"/></g><!--MD5=[cd192b455def96fb040f78d454347cf1]
link CountryData to Iterable--><g id="link_CountryData_Iterable"><path codeLine="120" d="M348.69,934.09 C391.1,975.42 440.28,1023.34 471.14,1053.41 " fill="none" id="CountryData-to-Iterable" style="stroke:#181818;stroke-width:1.0;stroke-dasharray:7.0,7.0;"/><polygon fill="none" points="476.42,1048.79,485.86,1067.76,466.65,1058.81,476.42,1048.79" style="stroke:#181818;stroke-width:1.0;"/></g><!--MD5=[ca3f223a6af7e2526a23611aca7577a7]
link FruitData to Iterable--><g id="link_FruitData_Iterable"><path codeLine="122" d="M424.46,695.02 C440.12,718.05 455.82,745.06 465.5,772 C499.75,867.3 503.21,988.6 502.56,1047.59 " fill="none" id="FruitData-to-Iterable" style="stroke:#181818;stroke-width:1.0;stroke-dasharray:7.0,7.0;"/><polygon fill="none" points="509.56,1048.03,502.14,1067.88,495.56,1047.74,509.56,1048.03" style="stroke:#181818;stroke-width:1.0;"/></g><!--MD5=[83ef6b17293f47511bd8c6740db18f2a]
link Container to Iterable--><g id="link_Container_Iterable"><path codeLine="124" d="M519.32,464.81 C526.07,495.24 533.16,532.28 536.5,566 C544.97,651.54 532.48,945.76 527.5,981 C524.26,1003.88 517.88,1029.03 512.25,1048.64 " fill="none" id="Container-to-Iterable" style="stroke:#181818;stroke-width:1.0;stroke-dasharray:7.0,7.0;"/><polygon fill="none" points="518.89,1050.87,506.42,1068,505.49,1046.83,518.89,1050.87" style="stroke:#181818;stroke-width:1.0;"/></g><!--MD5=[490bdb0b6d8c4bce34c8579f14a4e7e8]
link GreatestDifference to Container--><g id="link_GreatestDifference_Container"><path codeLine="126" d="M146.35,169.16 C163.9,190.57 186.24,215.18 209.5,234 C264.16,278.23 332.25,317.28 389.14,346.27 " fill="none" id="GreatestDifference-to-Container" style="stroke:#181818;stroke-width:1.0;"/><polygon fill="#181818" points="393.91,348.69,387.7074,341.0396,389.4551,346.4197,384.075,348.1674,393.91,348.69" style="stroke:#181818;stroke-width:1.0;"/><text fill="#000000" font-family="sans-serif" font-size="13" lengthAdjust="spacing" textLength="30" x="270.5" y="277.0669">uses</text></g><!--MD5=[a9ba7ede6600335e63e24b2488119a39]
link GreatestDifference to GreatestDifferenceResult--><g id="link_GreatestDifference_GreatestDifferenceResult"><path codeLine="127" d="M110.5,169.2 C110.5,206.58 110.5,259.74 110.5,305.52 " fill="none" id="GreatestDifference-to-GreatestDifferenceResult" style="stroke:#181818;stroke-width:1.0;"/><polygon fill="#181818" points="110.5,310.78,114.5,301.78,110.5,305.78,106.5,301.78,110.5,310.78" style="stroke:#181818;stroke-width:1.0;"/><text fill="#000000" font-family="sans-serif" font-size="13" lengthAdjust="spacing" textLength="49" x="111.5" y="277.0669">outputs</text></g><!--MD5=[4efc7f6346bd364b98da1bb78125448d]
link DataHandler to CSVReader--><g id="link_DataHandler_CSVReader"><path codeLine="129" d="M1425.5,148.61 C1425.5,190.31 1425.5,271.51 1425.5,330.15 " fill="none" id="DataHandler-to-CSVReader" style="stroke:#181818;stroke-width:1.0;stroke-dasharray:7.0,7.0;"/><polygon fill="#181818" points="1425.5,335.4,1429.5,326.4,1425.5,330.4,1421.5,326.4,1425.5,335.4" style="stroke:#181818;stroke-width:1.0;"/><text fill="#000000" font-family="sans-serif" font-size="13" lengthAdjust="spacing" textLength="30" x="1426.5" y="277.0669">uses</text></g><!--MD5=[644bfc1986de8a5f90eb7c4e42aebabb]
link CountriesWithGreaterProduction to Container--><g id="link_CountriesWithGreaterProduction_Container"><path codeLine="131" d="M840.29,234.17 C763.74,271.63 681.82,311.73 617.94,342.99 " fill="none" id="CountriesWithGreaterProduction-to-Container" style="stroke:#181818;stroke-width:1.0;"/><polygon fill="#181818" points="613.37,345.23,623.2118,344.8583,617.8592,343.0283,619.6891,337.6756,613.37,345.23" style="stroke:#181818;stroke-width:1.0;"/><text fill="#000000" font-family="sans-serif" font-size="13" lengthAdjust="spacing" textLength="30" x="771.5" y="277.0669">uses</text></g><!--MD5=[d022d875514a38da11cbdc636e77f83d]
link CountriesWithProductionGrowth to Container--><g id="link_CountriesWithProductionGrowth_Container"><path codeLine="133" d="M623.57,169.2 C600.31,213.73 565.34,280.65 539.13,330.81 " fill="none" id="CountriesWithProductionGrowth-to-Container" style="stroke:#181818;stroke-width:1.0;"/><polygon fill="#181818" points="536.78,335.3,544.4935,329.1761,539.0958,330.8686,537.4033,325.4709,536.78,335.3" style="stroke:#181818;stroke-width:1.0;"/><text fill="#000000" font-family="sans-serif" font-size="13" lengthAdjust="spacing" textLength="30" x="573.5" y="277.0669">uses</text></g><!--MD5=[1c9b0ea9caafa17ef7cb9b98e21eaa7a]
link CountrySetWithHigherProduction to Container--><g id="link_CountrySetWithHigherProduction_Container"><path codeLine="135" d="M394.74,193.69 C417.15,235.99 445.28,289.1 467.33,330.71 " fill="none" id="CountrySetWithHigherProduction-to-Container" style="stroke:#181818;stroke-width:1.0;"/><polygon fill="#181818" points="469.71,335.21,469.0371,325.3842,467.3719,330.7904,461.9657,329.1252,469.71,335.21" style="stroke:#181818;stroke-width:1.0;"/><text fill="#000000" font-family="sans-serif" font-size="13" lengthAdjust="spacing" textLength="30" x="440.5" y="277.0669">uses</text></g><!--MD5=[8e967f9b4d2be13feb78e2d538cc6688]
@startuml CD_COMPLETE

skinparam classAttributeIconSize 0
hide empty members

class Container {
  -data: Map<String, FruitData>

  +addFruitData(fruit, fruitData)
  +getFruitData(fruit)
  +getFruits()
  +iterator()
}

class FruitData {
  -fruitData: Map<String, CountryData>

  +addCountryData(country, countryData)
  +getCountryData(country)
  +getCountries()
  +iterator()
}

class CountryData {
  -productionData: SortedSet<YearProductionData>

  +addProductionData(year, quantity)
  +getProductionData(year)
  +getProductionYears()
  +getOverallProductionQuantity()
  +size()
  +iterator()
}

class YearProductionData {
  -year: int
  -quantity: int

  +getYear()
  +getQuantity()
  +equals(other)
  +compareTo(other)
}

class GreatestDifferenceResult {
  - fruit: String
  - startYear: int
  - endYear: int
  - difference: int

  +getFruit()
  +getStartYear()
  +getEndYear()
  +getDifference()
}

class CSVReader {
  -scanner: Scanner

  + CSVReader(filename)

  - readHeader()
  + read()
}

class GreatestDifference {
  -data: Container
  -country: String

  +execute()
}

class DataHandler {
  +execute(data)
}

class CountrySetWithHigherProduction {
  -container: Container
  - quantityQ: int

  -sortArray()
  -getProductionQtyPerCountry()

  +execute()
}

class CountriesWithProductionGrowth {
  -data: Container
  -fruit: String

  +execute()
}

class CountriesWithGreaterProduction {
  -data: Container
  -fruit: String
  -production: int

  -sortCountryListByProduction(map)
  -convertEntryListToCountryList(list)
  -getProductionOfFirstYearWithGreaterProduction(countryData,production)
  -getCountriesWithGreaterProduction(production)
  -validateFruit(fruit)
  -validateProduction(production)

  +execute()
}

interface Iterable

interface Comparable

Container "1" o- - "0..*" FruitData : contains

FruitData "1" o- - "0..*" CountryData : contains

CountryData "1" o- - "0..*" YearProductionData : contains

YearProductionData ..|> Comparable

CountryData ..|> Iterable

FruitData ..|> Iterable

Container ..|> Iterable

GreatestDifference - -> Container : uses
GreatestDifference - -> GreatestDifferenceResult : outputs

DataHandler ..> CSVReader : uses

CountriesWithGreaterProduction - -> Container : uses

CountriesWithProductionGrowth - -> Container : uses

CountrySetWithHigherProduction - -> Container : uses

@enduml

PlantUML version 1.2022.7(Mon Aug 22 18:01:30 WEST 2022)
(GPL source distribution)
Java Runtime: OpenJDK Runtime Environment
JVM: OpenJDK 64-Bit Server VM
Default Encoding: UTF-8
Language: en
Country: US
--></g></svg>