<?xml version="1.0" encoding="UTF-8" standalone="no"?><svg xmlns="http://www.w3.org/2000/svg" xmlns:xlink="http://www.w3.org/1999/xlink" contentStyleType="text/css" height="1311px" preserveAspectRatio="none" style="width:1549px;height:1311px;background:#FFFFFF;" version="1.1" viewBox="0 0 1549 1311" width="1549px" zoomAndPan="magnify"><defs/><g><!--MD5=[e9a58730c562b34349daa605d1ed6662]
class Container--><g id="elem_Container"><rect codeLine="5" fill="#F1F1F1" height="136.0469" id="Container" rx="2.5" ry="2.5" style="stroke:#181818;stroke-width:0.5;" width="200" x="490" y="353.5"/><ellipse cx="554.75" cy="369.5" fill="#ADD1B2" rx="11" ry="11" style="stroke:#181818;stroke-width:1.0;"/><path d="M557.5156,365.375 Q557.6719,365.1563 557.8594,365.0469 Q558.0469,364.9375 558.2656,364.9375 Q558.6406,364.9375 558.875,365.2031 Q559.1094,365.4531 559.1094,366.0625 L559.1094,367.5156 Q559.1094,368.125 558.875,368.3906 Q558.6406,368.6563 558.2656,368.6563 Q557.9219,368.6563 557.7188,368.4531 Q557.5156,368.2656 557.4063,367.75 Q557.3594,367.3906 557.1719,367.2031 Q556.8438,366.8281 556.2344,366.6094 Q555.625,366.3906 555,366.3906 Q554.2344,366.3906 553.5938,366.7188 Q552.9688,367.0469 552.4688,367.7969 Q551.9844,368.5469 551.9844,369.5781 L551.9844,370.6719 Q551.9844,371.9063 552.875,372.7344 Q553.7656,373.5469 555.3594,373.5469 Q556.2969,373.5469 556.9531,373.2969 Q557.3438,373.1406 557.7656,372.7031 Q558.0313,372.4375 558.1719,372.3594 Q558.3281,372.2813 558.5313,372.2813 Q558.8594,372.2813 559.1094,372.5469 Q559.375,372.7969 559.375,373.1406 Q559.375,373.4844 559.0313,373.8906 Q558.5313,374.4688 557.7344,374.7969 Q556.6563,375.25 555.3594,375.25 Q553.8438,375.25 552.6406,374.625 Q551.6563,374.125 550.9688,373.0625 Q550.2813,371.9844 550.2813,370.7031 L550.2813,369.5469 Q550.2813,368.2188 550.8906,367.0781 Q551.5156,365.9219 552.6094,365.3125 Q553.7031,364.6875 554.9375,364.6875 Q555.6719,364.6875 556.3125,364.8594 Q556.9688,365.0156 557.5156,365.375 Z " fill="#000000"/><text fill="#000000" font-family="sans-serif" font-size="14" lengthAdjust="spacing" textLength="62" x="575.25" y="375.2285">Container</text><line style="stroke:#181818;stroke-width:0.5;" x1="491" x2="689" y1="385.5" y2="385.5"/><text fill="#000000" font-family="sans-serif" font-size="14" lengthAdjust="spacing" textLength="188" x="496" y="404.0332">-data: Map&lt;String, FruitData&gt;</text><line style="stroke:#181818;stroke-width:0.5;" x1="491" x2="689" y1="411.1094" y2="411.1094"/><text fill="#000000" font-family="sans-serif" font-size="14" lengthAdjust="spacing" textLength="187" x="496" y="429.6426">+addFruitData(fruit, fruitData)</text><text fill="#000000" font-family="sans-serif" font-size="14" lengthAdjust="spacing" textLength="121" x="496" y="447.252">+getFruitData(fruit)</text><text fill="#000000" font-family="sans-serif" font-size="14" lengthAdjust="spacing" textLength="74" x="496" y="464.8613">+getFruits()</text><text fill="#000000" font-family="sans-serif" font-size="14" lengthAdjust="spacing" textLength="63" x="496" y="482.4707">+iterator()</text></g><!--MD5=[f9749dc75bf6faa5a638f9c61b86e169]
class FruitData--><g id="elem_FruitData"><rect codeLine="14" fill="#F1F1F1" height="136.0469" id="FruitData" rx="2.5" ry="2.5" style="stroke:#181818;stroke-width:0.5;" width="266" x="271" y="594"/><ellipse cx="370.25" cy="610" fill="#ADD1B2" rx="11" ry="11" style="stroke:#181818;stroke-width:1.0;"/><path d="M373.0156,605.875 Q373.1719,605.6563 373.3594,605.5469 Q373.5469,605.4375 373.7656,605.4375 Q374.1406,605.4375 374.375,605.7031 Q374.6094,605.9531 374.6094,606.5625 L374.6094,608.0156 Q374.6094,608.625 374.375,608.8906 Q374.1406,609.1563 373.7656,609.1563 Q373.4219,609.1563 373.2188,608.9531 Q373.0156,608.7656 372.9063,608.25 Q372.8594,607.8906 372.6719,607.7031 Q372.3438,607.3281 371.7344,607.1094 Q371.125,606.8906 370.5,606.8906 Q369.7344,606.8906 369.0938,607.2188 Q368.4688,607.5469 367.9688,608.2969 Q367.4844,609.0469 367.4844,610.0781 L367.4844,611.1719 Q367.4844,612.4063 368.375,613.2344 Q369.2656,614.0469 370.8594,614.0469 Q371.7969,614.0469 372.4531,613.7969 Q372.8438,613.6406 373.2656,613.2031 Q373.5313,612.9375 373.6719,612.8594 Q373.8281,612.7813 374.0313,612.7813 Q374.3594,612.7813 374.6094,613.0469 Q374.875,613.2969 374.875,613.6406 Q374.875,613.9844 374.5313,614.3906 Q374.0313,614.9688 373.2344,615.2969 Q372.1563,615.75 370.8594,615.75 Q369.3438,615.75 368.1406,615.125 Q367.1563,614.625 366.4688,613.5625 Q365.7813,612.4844 365.7813,611.2031 L365.7813,610.0469 Q365.7813,608.7188 366.3906,607.5781 Q367.0156,606.4219 368.1094,605.8125 Q369.2031,605.1875 370.4375,605.1875 Q371.1719,605.1875 371.8125,605.3594 Q372.4688,605.5156 373.0156,605.875 Z " fill="#000000"/><text fill="#000000" font-family="sans-serif" font-size="14" lengthAdjust="spacing" textLength="59" x="390.75" y="615.7285">FruitData</text><line style="stroke:#181818;stroke-width:0.5;" x1="272" x2="536" y1="626" y2="626"/><text fill="#000000" font-family="sans-serif" font-size="14" lengthAdjust="spacing" textLength="235" x="277" y="644.5332">-fruitData: Map&lt;String, CountryData&gt;</text><line style="stroke:#181818;stroke-width:0.5;" x1="272" x2="536" y1="651.6094" y2="651.6094"/><text fill="#000000" font-family="sans-serif" font-size="14" lengthAdjust="spacing" textLength="254" x="277" y="670.1426">+addCountryData(country, countryData)</text><text fill="#000000" font-family="sans-serif" font-size="14" lengthAdjust="spacing" textLength="165" x="277" y="687.752">+getCountryData(country)</text><text fill="#000000" font-family="sans-serif" font-size="14" lengthAdjust="spacing" textLength="99" x="277" y="705.3613">+getCountries()</text><text fill="#000000" font-family="sans-serif" font-size="14" lengthAdjust="spacing" textLength="63" x="277" y="722.9707">+iterator()</text></g><!--MD5=[7fc7cbba852adc009bf6f0cff1d89c87]
class CountryData--><g id="elem_CountryData"><rect codeLine="23" fill="#F1F1F1" height="171.2656" id="CountryData" rx="2.5" ry="2.5" style="stroke:#181818;stroke-width:0.5;" width="329" x="105.5" y="808"/><ellipse cx="225.75" cy="824" fill="#ADD1B2" rx="11" ry="11" style="stroke:#181818;stroke-width:1.0;"/><path d="M228.5156,819.875 Q228.6719,819.6563 228.8594,819.5469 Q229.0469,819.4375 229.2656,819.4375 Q229.6406,819.4375 229.875,819.7031 Q230.1094,819.9531 230.1094,820.5625 L230.1094,822.0156 Q230.1094,822.625 229.875,822.8906 Q229.6406,823.1563 229.2656,823.1563 Q228.9219,823.1563 228.7188,822.9531 Q228.5156,822.7656 228.4063,822.25 Q228.3594,821.8906 228.1719,821.7031 Q227.8438,821.3281 227.2344,821.1094 Q226.625,820.8906 226,820.8906 Q225.2344,820.8906 224.5938,821.2188 Q223.9688,821.5469 223.4688,822.2969 Q222.9844,823.0469 222.9844,824.0781 L222.9844,825.1719 Q222.9844,826.4063 223.875,827.2344 Q224.7656,828.0469 226.3594,828.0469 Q227.2969,828.0469 227.9531,827.7969 Q228.3438,827.6406 228.7656,827.2031 Q229.0313,826.9375 229.1719,826.8594 Q229.3281,826.7813 229.5313,826.7813 Q229.8594,826.7813 230.1094,827.0469 Q230.375,827.2969 230.375,827.6406 Q230.375,827.9844 230.0313,828.3906 Q229.5313,828.9688 228.7344,829.2969 Q227.6563,829.75 226.3594,829.75 Q224.8438,829.75 223.6406,829.125 Q222.6563,828.625 221.9688,827.5625 Q221.2813,826.4844 221.2813,825.2031 L221.2813,824.0469 Q221.2813,822.7188 221.8906,821.5781 Q222.5156,820.4219 223.6094,819.8125 Q224.7031,819.1875 225.9375,819.1875 Q226.6719,819.1875 227.3125,819.3594 Q227.9688,819.5156 228.5156,819.875 Z " fill="#000000"/><text fill="#000000" font-family="sans-serif" font-size="14" lengthAdjust="spacing" textLength="80" x="246.25" y="829.7285">CountryData</text><line style="stroke:#181818;stroke-width:0.5;" x1="106.5" x2="433.5" y1="840" y2="840"/><text fill="#000000" font-family="sans-serif" font-size="14" lengthAdjust="spacing" textLength="317" x="111.5" y="858.5332">-productionData: SortedSet&lt;YearProductionData&gt;</text><line style="stroke:#181818;stroke-width:0.5;" x1="106.5" x2="433.5" y1="865.6094" y2="865.6094"/><text fill="#000000" font-family="sans-serif" font-size="14" lengthAdjust="spacing" textLength="226" x="111.5" y="884.1426">+addProductionData(year, quantity)</text><text fill="#000000" font-family="sans-serif" font-size="14" lengthAdjust="spacing" textLength="164" x="111.5" y="901.752">+getProductionData(year)</text><text fill="#000000" font-family="sans-serif" font-size="14" lengthAdjust="spacing" textLength="143" x="111.5" y="919.3613">+getProductionYears()</text><text fill="#000000" font-family="sans-serif" font-size="14" lengthAdjust="spacing" textLength="204" x="111.5" y="936.9707">+getOverallProductionQuantity()</text><text fill="#000000" font-family="sans-serif" font-size="14" lengthAdjust="spacing" textLength="42" x="111.5" y="954.5801">+size()</text><text fill="#000000" font-family="sans-serif" font-size="14" lengthAdjust="spacing" textLength="63" x="111.5" y="972.1895">+iterator()</text></g><!--MD5=[ad333e840a12d1559da41e79a89223e2]
class YearProductionData--><g id="elem_YearProductionData"><rect codeLine="34" fill="#F1F1F1" height="153.6563" id="YearProductionData" rx="2.5" ry="2.5" style="stroke:#181818;stroke-width:0.5;" width="160" x="190" y="1057"/><ellipse cx="205" cy="1073" fill="#ADD1B2" rx="11" ry="11" style="stroke:#181818;stroke-width:1.0;"/><path d="M207.7656,1068.875 Q207.9219,1068.6563 208.1094,1068.5469 Q208.2969,1068.4375 208.5156,1068.4375 Q208.8906,1068.4375 209.125,1068.7031 Q209.3594,1068.9531 209.3594,1069.5625 L209.3594,1071.0156 Q209.3594,1071.625 209.125,1071.8906 Q208.8906,1072.1563 208.5156,1072.1563 Q208.1719,1072.1563 207.9688,1071.9531 Q207.7656,1071.7656 207.6563,1071.25 Q207.6094,1070.8906 207.4219,1070.7031 Q207.0938,1070.3281 206.4844,1070.1094 Q205.875,1069.8906 205.25,1069.8906 Q204.4844,1069.8906 203.8438,1070.2188 Q203.2188,1070.5469 202.7188,1071.2969 Q202.2344,1072.0469 202.2344,1073.0781 L202.2344,1074.1719 Q202.2344,1075.4063 203.125,1076.2344 Q204.0156,1077.0469 205.6094,1077.0469 Q206.5469,1077.0469 207.2031,1076.7969 Q207.5938,1076.6406 208.0156,1076.2031 Q208.2813,1075.9375 208.4219,1075.8594 Q208.5781,1075.7813 208.7813,1075.7813 Q209.1094,1075.7813 209.3594,1076.0469 Q209.625,1076.2969 209.625,1076.6406 Q209.625,1076.9844 209.2813,1077.3906 Q208.7813,1077.9688 207.9844,1078.2969 Q206.9063,1078.75 205.6094,1078.75 Q204.0938,1078.75 202.8906,1078.125 Q201.9063,1077.625 201.2188,1076.5625 Q200.5313,1075.4844 200.5313,1074.2031 L200.5313,1073.0469 Q200.5313,1071.7188 201.1406,1070.5781 Q201.7656,1069.4219 202.8594,1068.8125 Q203.9531,1068.1875 205.1875,1068.1875 Q205.9219,1068.1875 206.5625,1068.3594 Q207.2188,1068.5156 207.7656,1068.875 Z " fill="#000000"/><text fill="#000000" font-family="sans-serif" font-size="14" lengthAdjust="spacing" textLength="128" x="219" y="1078.7285">YearProductionData</text><line style="stroke:#181818;stroke-width:0.5;" x1="191" x2="349" y1="1089" y2="1089"/><text fill="#000000" font-family="sans-serif" font-size="14" lengthAdjust="spacing" textLength="56" x="196" y="1107.5332">-year: int</text><text fill="#000000" font-family="sans-serif" font-size="14" lengthAdjust="spacing" textLength="78" x="196" y="1125.1426">-quantity: int</text><line style="stroke:#181818;stroke-width:0.5;" x1="191" x2="349" y1="1132.2188" y2="1132.2188"/><text fill="#000000" font-family="sans-serif" font-size="14" lengthAdjust="spacing" textLength="68" x="196" y="1150.752">+getYear()</text><text fill="#000000" font-family="sans-serif" font-size="14" lengthAdjust="spacing" textLength="91" x="196" y="1168.3613">+getQuantity()</text><text fill="#000000" font-family="sans-serif" font-size="14" lengthAdjust="spacing" textLength="93" x="196" y="1185.9707">+equals(other)</text><text fill="#000000" font-family="sans-serif" font-size="14" lengthAdjust="spacing" textLength="123" x="196" y="1203.5801">+compareTo(other)</text></g><!--MD5=[93d2be21c1fc4bd5769bea53314c28f3]
class GreatestDifferenceResult--><g id="elem_GreatestDifferenceResult"><rect codeLine="44" fill="#F1F1F1" height="188.875" id="GreatestDifferenceResult" rx="2.5" ry="2.5" style="stroke:#181818;stroke-width:0.5;" width="192" x="1350" y="327"/><ellipse cx="1365" cy="343" fill="#ADD1B2" rx="11" ry="11" style="stroke:#181818;stroke-width:1.0;"/><path d="M1367.7656,338.875 Q1367.9219,338.6563 1368.1094,338.5469 Q1368.2969,338.4375 1368.5156,338.4375 Q1368.8906,338.4375 1369.125,338.7031 Q1369.3594,338.9531 1369.3594,339.5625 L1369.3594,341.0156 Q1369.3594,341.625 1369.125,341.8906 Q1368.8906,342.1563 1368.5156,342.1563 Q1368.1719,342.1563 1367.9688,341.9531 Q1367.7656,341.7656 1367.6563,341.25 Q1367.6094,340.8906 1367.4219,340.7031 Q1367.0938,340.3281 1366.4844,340.1094 Q1365.875,339.8906 1365.25,339.8906 Q1364.4844,339.8906 1363.8438,340.2188 Q1363.2188,340.5469 1362.7188,341.2969 Q1362.2344,342.0469 1362.2344,343.0781 L1362.2344,344.1719 Q1362.2344,345.4063 1363.125,346.2344 Q1364.0156,347.0469 1365.6094,347.0469 Q1366.5469,347.0469 1367.2031,346.7969 Q1367.5938,346.6406 1368.0156,346.2031 Q1368.2813,345.9375 1368.4219,345.8594 Q1368.5781,345.7813 1368.7813,345.7813 Q1369.1094,345.7813 1369.3594,346.0469 Q1369.625,346.2969 1369.625,346.6406 Q1369.625,346.9844 1369.2813,347.3906 Q1368.7813,347.9688 1367.9844,348.2969 Q1366.9063,348.75 1365.6094,348.75 Q1364.0938,348.75 1362.8906,348.125 Q1361.9063,347.625 1361.2188,346.5625 Q1360.5313,345.4844 1360.5313,344.2031 L1360.5313,343.0469 Q1360.5313,341.7188 1361.1406,340.5781 Q1361.7656,339.4219 1362.8594,338.8125 Q1363.9531,338.1875 1365.1875,338.1875 Q1365.9219,338.1875 1366.5625,338.3594 Q1367.2188,338.5156 1367.7656,338.875 Z " fill="#000000"/><text fill="#000000" font-family="sans-serif" font-size="14" lengthAdjust="spacing" textLength="160" x="1379" y="348.7285">GreatestDifferenceResult</text><line style="stroke:#181818;stroke-width:0.5;" x1="1351" x2="1541" y1="359" y2="359"/><text fill="#000000" font-family="sans-serif" font-size="14" lengthAdjust="spacing" textLength="74" x="1356" y="377.5332">-fruit: String</text><text fill="#000000" font-family="sans-serif" font-size="14" lengthAdjust="spacing" textLength="86" x="1356" y="395.1426">-startYear: int</text><text fill="#000000" font-family="sans-serif" font-size="14" lengthAdjust="spacing" textLength="82" x="1356" y="412.752">-endYear: int</text><text fill="#000000" font-family="sans-serif" font-size="14" lengthAdjust="spacing" textLength="91" x="1356" y="430.3613">-difference: int</text><line style="stroke:#181818;stroke-width:0.5;" x1="1351" x2="1541" y1="437.4375" y2="437.4375"/><text fill="#000000" font-family="sans-serif" font-size="14" lengthAdjust="spacing" textLength="67" x="1356" y="455.9707">+getFruit()</text><text fill="#000000" font-family="sans-serif" font-size="14" lengthAdjust="spacing" textLength="98" x="1356" y="473.5801">+getStartYear()</text><text fill="#000000" font-family="sans-serif" font-size="14" lengthAdjust="spacing" textLength="93" x="1356" y="491.1895">+getEndYear()</text><text fill="#000000" font-family="sans-serif" font-size="14" lengthAdjust="spacing" textLength="103" x="1356" y="508.7988">+getDifference()</text></g><!--MD5=[60b59e3d7d8b95aff167b5157d975660]
class CSVReader--><g id="elem_CSVReader"><rect codeLine="56" fill="#F1F1F1" height="136.0469" id="CSVReader" rx="2.5" ry="2.5" style="stroke:#181818;stroke-width:0.5;" width="158" x="7" y="353.5"/><ellipse cx="44.95" cy="369.5" fill="#ADD1B2" rx="11" ry="11" style="stroke:#181818;stroke-width:1.0;"/><path d="M47.7156,365.375 Q47.8719,365.1563 48.0594,365.0469 Q48.2469,364.9375 48.4656,364.9375 Q48.8406,364.9375 49.075,365.2031 Q49.3094,365.4531 49.3094,366.0625 L49.3094,367.5156 Q49.3094,368.125 49.075,368.3906 Q48.8406,368.6563 48.4656,368.6563 Q48.1219,368.6563 47.9188,368.4531 Q47.7156,368.2656 47.6063,367.75 Q47.5594,367.3906 47.3719,367.2031 Q47.0438,366.8281 46.4344,366.6094 Q45.825,366.3906 45.2,366.3906 Q44.4344,366.3906 43.7938,366.7188 Q43.1688,367.0469 42.6688,367.7969 Q42.1844,368.5469 42.1844,369.5781 L42.1844,370.6719 Q42.1844,371.9063 43.075,372.7344 Q43.9656,373.5469 45.5594,373.5469 Q46.4969,373.5469 47.1531,373.2969 Q47.5438,373.1406 47.9656,372.7031 Q48.2313,372.4375 48.3719,372.3594 Q48.5281,372.2813 48.7313,372.2813 Q49.0594,372.2813 49.3094,372.5469 Q49.575,372.7969 49.575,373.1406 Q49.575,373.4844 49.2313,373.8906 Q48.7313,374.4688 47.9344,374.7969 Q46.8563,375.25 45.5594,375.25 Q44.0438,375.25 42.8406,374.625 Q41.8563,374.125 41.1688,373.0625 Q40.4813,371.9844 40.4813,370.7031 L40.4813,369.5469 Q40.4813,368.2188 41.0906,367.0781 Q41.7156,365.9219 42.8094,365.3125 Q43.9031,364.6875 45.1375,364.6875 Q45.8719,364.6875 46.5125,364.8594 Q47.1688,365.0156 47.7156,365.375 Z " fill="#000000"/><text fill="#000000" font-family="sans-serif" font-size="14" lengthAdjust="spacing" textLength="75" x="64.05" y="375.2285">CSVReader</text><line style="stroke:#181818;stroke-width:0.5;" x1="8" x2="164" y1="385.5" y2="385.5"/><text fill="#000000" font-family="sans-serif" font-size="14" lengthAdjust="spacing" textLength="117" x="13" y="404.0332">-scanner: Scanner</text><line style="stroke:#181818;stroke-width:0.5;" x1="8" x2="164" y1="411.1094" y2="411.1094"/><text fill="#000000" font-family="sans-serif" font-size="14" lengthAdjust="spacing" textLength="146" x="13" y="429.6426">+CSVReader(filename)</text><text fill="#000000" font-family="sans-serif" font-size="14" lengthAdjust="spacing" textLength="4" x="13" y="447.252"> </text><text fill="#000000" font-family="sans-serif" font-size="14" lengthAdjust="spacing" textLength="90" x="13" y="464.8613">-readHeader()</text><text fill="#000000" font-family="sans-serif" font-size="14" lengthAdjust="spacing" textLength="47" x="13" y="482.4707">+read()</text></g><!--MD5=[82eefb8b05be56e7eb7b882684d04dc0]
class GreatestDifference--><g id="elem_GreatestDifference"><rect codeLine="65" fill="#F1F1F1" height="100.8281" id="GreatestDifference" rx="2.5" ry="2.5" style="stroke:#181818;stroke-width:0.5;" width="152" x="1370" y="77.5"/><ellipse cx="1385" cy="93.5" fill="#ADD1B2" rx="11" ry="11" style="stroke:#181818;stroke-width:1.0;"/><path d="M1387.7656,89.375 Q1387.9219,89.1563 1388.1094,89.0469 Q1388.2969,88.9375 1388.5156,88.9375 Q1388.8906,88.9375 1389.125,89.2031 Q1389.3594,89.4531 1389.3594,90.0625 L1389.3594,91.5156 Q1389.3594,92.125 1389.125,92.3906 Q1388.8906,92.6563 1388.5156,92.6563 Q1388.1719,92.6563 1387.9688,92.4531 Q1387.7656,92.2656 1387.6563,91.75 Q1387.6094,91.3906 1387.4219,91.2031 Q1387.0938,90.8281 1386.4844,90.6094 Q1385.875,90.3906 1385.25,90.3906 Q1384.4844,90.3906 1383.8438,90.7188 Q1383.2188,91.0469 1382.7188,91.7969 Q1382.2344,92.5469 1382.2344,93.5781 L1382.2344,94.6719 Q1382.2344,95.9063 1383.125,96.7344 Q1384.0156,97.5469 1385.6094,97.5469 Q1386.5469,97.5469 1387.2031,97.2969 Q1387.5938,97.1406 1388.0156,96.7031 Q1388.2813,96.4375 1388.4219,96.3594 Q1388.5781,96.2813 1388.7813,96.2813 Q1389.1094,96.2813 1389.3594,96.5469 Q1389.625,96.7969 1389.625,97.1406 Q1389.625,97.4844 1389.2813,97.8906 Q1388.7813,98.4688 1387.9844,98.7969 Q1386.9063,99.25 1385.6094,99.25 Q1384.0938,99.25 1382.8906,98.625 Q1381.9063,98.125 1381.2188,97.0625 Q1380.5313,95.9844 1380.5313,94.7031 L1380.5313,93.5469 Q1380.5313,92.2188 1381.1406,91.0781 Q1381.7656,89.9219 1382.8594,89.3125 Q1383.9531,88.6875 1385.1875,88.6875 Q1385.9219,88.6875 1386.5625,88.8594 Q1387.2188,89.0156 1387.7656,89.375 Z " fill="#000000"/><text fill="#000000" font-family="sans-serif" font-size="14" lengthAdjust="spacing" textLength="120" x="1399" y="99.2285">GreatestDifference</text><line style="stroke:#181818;stroke-width:0.5;" x1="1371" x2="1521" y1="109.5" y2="109.5"/><text fill="#000000" font-family="sans-serif" font-size="14" lengthAdjust="spacing" textLength="103" x="1376" y="128.0332">-data: Container</text><text fill="#000000" font-family="sans-serif" font-size="14" lengthAdjust="spacing" textLength="97" x="1376" y="145.6426">-country: String</text><line style="stroke:#181818;stroke-width:0.5;" x1="1371" x2="1521" y1="152.7188" y2="152.7188"/><text fill="#000000" font-family="sans-serif" font-size="14" lengthAdjust="spacing" textLength="67" x="1376" y="171.252">+execute()</text></g><!--MD5=[4b2d61224b33971326a22fe5d809d926]
class DataHandler--><g id="elem_DataHandler"><rect codeLine="72" fill="#F1F1F1" height="57.6094" id="DataHandler" rx="2.5" ry="2.5" style="stroke:#181818;stroke-width:0.5;" width="111" x="162.5" y="99"/><ellipse cx="177.5" cy="115" fill="#ADD1B2" rx="11" ry="11" style="stroke:#181818;stroke-width:1.0;"/><path d="M180.2656,110.875 Q180.4219,110.6563 180.6094,110.5469 Q180.7969,110.4375 181.0156,110.4375 Q181.3906,110.4375 181.625,110.7031 Q181.8594,110.9531 181.8594,111.5625 L181.8594,113.0156 Q181.8594,113.625 181.625,113.8906 Q181.3906,114.1563 181.0156,114.1563 Q180.6719,114.1563 180.4688,113.9531 Q180.2656,113.7656 180.1563,113.25 Q180.1094,112.8906 179.9219,112.7031 Q179.5938,112.3281 178.9844,112.1094 Q178.375,111.8906 177.75,111.8906 Q176.9844,111.8906 176.3438,112.2188 Q175.7188,112.5469 175.2188,113.2969 Q174.7344,114.0469 174.7344,115.0781 L174.7344,116.1719 Q174.7344,117.4063 175.625,118.2344 Q176.5156,119.0469 178.1094,119.0469 Q179.0469,119.0469 179.7031,118.7969 Q180.0938,118.6406 180.5156,118.2031 Q180.7813,117.9375 180.9219,117.8594 Q181.0781,117.7813 181.2813,117.7813 Q181.6094,117.7813 181.8594,118.0469 Q182.125,118.2969 182.125,118.6406 Q182.125,118.9844 181.7813,119.3906 Q181.2813,119.9688 180.4844,120.2969 Q179.4063,120.75 178.1094,120.75 Q176.5938,120.75 175.3906,120.125 Q174.4063,119.625 173.7188,118.5625 Q173.0313,117.4844 173.0313,116.2031 L173.0313,115.0469 Q173.0313,113.7188 173.6406,112.5781 Q174.2656,111.4219 175.3594,110.8125 Q176.4531,110.1875 177.6875,110.1875 Q178.4219,110.1875 179.0625,110.3594 Q179.7188,110.5156 180.2656,110.875 Z " fill="#000000"/><text fill="#000000" font-family="sans-serif" font-size="14" lengthAdjust="spacing" textLength="79" x="191.5" y="120.7285">DataHandler</text><line style="stroke:#181818;stroke-width:0.5;" x1="163.5" x2="272.5" y1="131" y2="131"/><text fill="#000000" font-family="sans-serif" font-size="14" lengthAdjust="spacing" textLength="95" x="168.5" y="149.5332">+execute(data)</text></g><!--MD5=[8fec355efe8bf6b30f56ea26e160e6ad]
class CountrySetWithHigherProduction--><g id="elem_CountrySetWithHigherProduction"><rect codeLine="76" fill="#F1F1F1" height="153.6563" id="CountrySetWithHigherProduction" rx="2.5" ry="2.5" style="stroke:#181818;stroke-width:0.5;" width="240" x="309" y="51"/><ellipse cx="324" cy="67" fill="#ADD1B2" rx="11" ry="11" style="stroke:#181818;stroke-width:1.0;"/><path d="M326.7656,62.875 Q326.9219,62.6563 327.1094,62.5469 Q327.2969,62.4375 327.5156,62.4375 Q327.8906,62.4375 328.125,62.7031 Q328.3594,62.9531 328.3594,63.5625 L328.3594,65.0156 Q328.3594,65.625 328.125,65.8906 Q327.8906,66.1563 327.5156,66.1563 Q327.1719,66.1563 326.9688,65.9531 Q326.7656,65.7656 326.6563,65.25 Q326.6094,64.8906 326.4219,64.7031 Q326.0938,64.3281 325.4844,64.1094 Q324.875,63.8906 324.25,63.8906 Q323.4844,63.8906 322.8438,64.2188 Q322.2188,64.5469 321.7188,65.2969 Q321.2344,66.0469 321.2344,67.0781 L321.2344,68.1719 Q321.2344,69.4063 322.125,70.2344 Q323.0156,71.0469 324.6094,71.0469 Q325.5469,71.0469 326.2031,70.7969 Q326.5938,70.6406 327.0156,70.2031 Q327.2813,69.9375 327.4219,69.8594 Q327.5781,69.7813 327.7813,69.7813 Q328.1094,69.7813 328.3594,70.0469 Q328.625,70.2969 328.625,70.6406 Q328.625,70.9844 328.2813,71.3906 Q327.7813,71.9688 326.9844,72.2969 Q325.9063,72.75 324.6094,72.75 Q323.0938,72.75 321.8906,72.125 Q320.9063,71.625 320.2188,70.5625 Q319.5313,69.4844 319.5313,68.2031 L319.5313,67.0469 Q319.5313,65.7188 320.1406,64.5781 Q320.7656,63.4219 321.8594,62.8125 Q322.9531,62.1875 324.1875,62.1875 Q324.9219,62.1875 325.5625,62.3594 Q326.2188,62.5156 326.7656,62.875 Z " fill="#000000"/><text fill="#000000" font-family="sans-serif" font-size="14" lengthAdjust="spacing" textLength="208" x="338" y="72.7285">CountrySetWithHigherProduction</text><line style="stroke:#181818;stroke-width:0.5;" x1="310" x2="548" y1="83" y2="83"/><text fill="#000000" font-family="sans-serif" font-size="14" lengthAdjust="spacing" textLength="134" x="315" y="101.5332">-container: Container</text><text fill="#000000" font-family="sans-serif" font-size="14" lengthAdjust="spacing" textLength="89" x="315" y="119.1426">-quantityQ: int</text><line style="stroke:#181818;stroke-width:0.5;" x1="310" x2="548" y1="126.2188" y2="126.2188"/><text fill="#000000" font-family="sans-serif" font-size="14" lengthAdjust="spacing" textLength="73" x="315" y="144.752">-sortArray()</text><text fill="#000000" font-family="sans-serif" font-size="14" lengthAdjust="spacing" textLength="197" x="315" y="162.3613">-getProductionQtyPerCountry()</text><text fill="#000000" font-family="sans-serif" font-size="14" lengthAdjust="spacing" textLength="4" x="315" y="179.9707"> </text><text fill="#000000" font-family="sans-serif" font-size="14" lengthAdjust="spacing" textLength="67" x="315" y="197.5801">+execute()</text></g><!--MD5=[588484c1f8ca180080451fcc2272d36d]
class CountriesWithProductionGrowth--><g id="elem_CountriesWithProductionGrowth"><rect codeLine="86" fill="#F1F1F1" height="100.8281" id="CountriesWithProductionGrowth" rx="2.5" ry="2.5" style="stroke:#181818;stroke-width:0.5;" width="234" x="584" y="77.5"/><ellipse cx="599" cy="93.5" fill="#ADD1B2" rx="11" ry="11" style="stroke:#181818;stroke-width:1.0;"/><path d="M601.7656,89.375 Q601.9219,89.1563 602.1094,89.0469 Q602.2969,88.9375 602.5156,88.9375 Q602.8906,88.9375 603.125,89.2031 Q603.3594,89.4531 603.3594,90.0625 L603.3594,91.5156 Q603.3594,92.125 603.125,92.3906 Q602.8906,92.6563 602.5156,92.6563 Q602.1719,92.6563 601.9688,92.4531 Q601.7656,92.2656 601.6563,91.75 Q601.6094,91.3906 601.4219,91.2031 Q601.0938,90.8281 600.4844,90.6094 Q599.875,90.3906 599.25,90.3906 Q598.4844,90.3906 597.8438,90.7188 Q597.2188,91.0469 596.7188,91.7969 Q596.2344,92.5469 596.2344,93.5781 L596.2344,94.6719 Q596.2344,95.9063 597.125,96.7344 Q598.0156,97.5469 599.6094,97.5469 Q600.5469,97.5469 601.2031,97.2969 Q601.5938,97.1406 602.0156,96.7031 Q602.2813,96.4375 602.4219,96.3594 Q602.5781,96.2813 602.7813,96.2813 Q603.1094,96.2813 603.3594,96.5469 Q603.625,96.7969 603.625,97.1406 Q603.625,97.4844 603.2813,97.8906 Q602.7813,98.4688 601.9844,98.7969 Q600.9063,99.25 599.6094,99.25 Q598.0938,99.25 596.8906,98.625 Q595.9063,98.125 595.2188,97.0625 Q594.5313,95.9844 594.5313,94.7031 L594.5313,93.5469 Q594.5313,92.2188 595.1406,91.0781 Q595.7656,89.9219 596.8594,89.3125 Q597.9531,88.6875 599.1875,88.6875 Q599.9219,88.6875 600.5625,88.8594 Q601.2188,89.0156 601.7656,89.375 Z " fill="#000000"/><text fill="#000000" font-family="sans-serif" font-size="14" lengthAdjust="spacing" textLength="202" x="613" y="99.2285">CountriesWithProductionGrowth</text><line style="stroke:#181818;stroke-width:0.5;" x1="585" x2="817" y1="109.5" y2="109.5"/><text fill="#000000" font-family="sans-serif" font-size="14" lengthAdjust="spacing" textLength="103" x="590" y="128.0332">-data: Container</text><text fill="#000000" font-family="sans-serif" font-size="14" lengthAdjust="spacing" textLength="74" x="590" y="145.6426">-fruit: String</text><line style="stroke:#181818;stroke-width:0.5;" x1="585" x2="817" y1="152.7188" y2="152.7188"/><text fill="#000000" font-family="sans-serif" font-size="14" lengthAdjust="spacing" textLength="67" x="590" y="171.252">+execute()</text></g><!--MD5=[ac912ef1b7a0f0dafb473a685f7873a9]
class CountriesWithGreaterProduction--><g id="elem_CountriesWithGreaterProduction"><rect codeLine="93" fill="#F1F1F1" height="241.7031" id="CountriesWithGreaterProduction" rx="2.5" ry="2.5" style="stroke:#181818;stroke-width:0.5;" width="481" x="853.5" y="7"/><ellipse cx="986.75" cy="23" fill="#ADD1B2" rx="11" ry="11" style="stroke:#181818;stroke-width:1.0;"/><path d="M989.5156,18.875 Q989.6719,18.6563 989.8594,18.5469 Q990.0469,18.4375 990.2656,18.4375 Q990.6406,18.4375 990.875,18.7031 Q991.1094,18.9531 991.1094,19.5625 L991.1094,21.0156 Q991.1094,21.625 990.875,21.8906 Q990.6406,22.1563 990.2656,22.1563 Q989.9219,22.1563 989.7188,21.9531 Q989.5156,21.7656 989.4063,21.25 Q989.3594,20.8906 989.1719,20.7031 Q988.8438,20.3281 988.2344,20.1094 Q987.625,19.8906 987,19.8906 Q986.2344,19.8906 985.5938,20.2188 Q984.9688,20.5469 984.4688,21.2969 Q983.9844,22.0469 983.9844,23.0781 L983.9844,24.1719 Q983.9844,25.4063 984.875,26.2344 Q985.7656,27.0469 987.3594,27.0469 Q988.2969,27.0469 988.9531,26.7969 Q989.3438,26.6406 989.7656,26.2031 Q990.0313,25.9375 990.1719,25.8594 Q990.3281,25.7813 990.5313,25.7813 Q990.8594,25.7813 991.1094,26.0469 Q991.375,26.2969 991.375,26.6406 Q991.375,26.9844 991.0313,27.3906 Q990.5313,27.9688 989.7344,28.2969 Q988.6563,28.75 987.3594,28.75 Q985.8438,28.75 984.6406,28.125 Q983.6563,27.625 982.9688,26.5625 Q982.2813,25.4844 982.2813,24.2031 L982.2813,23.0469 Q982.2813,21.7188 982.8906,20.5781 Q983.5156,19.4219 984.6094,18.8125 Q985.7031,18.1875 986.9375,18.1875 Q987.6719,18.1875 988.3125,18.3594 Q988.9688,18.5156 989.5156,18.875 Z " fill="#000000"/><text fill="#000000" font-family="sans-serif" font-size="14" lengthAdjust="spacing" textLength="206" x="1007.25" y="28.7285">CountriesWithGreaterProduction</text><line style="stroke:#181818;stroke-width:0.5;" x1="854.5" x2="1333.5" y1="39" y2="39"/><text fill="#000000" font-family="sans-serif" font-size="14" lengthAdjust="spacing" textLength="103" x="859.5" y="57.5332">-data: Container</text><text fill="#000000" font-family="sans-serif" font-size="14" lengthAdjust="spacing" textLength="74" x="859.5" y="75.1426">-fruit: String</text><text fill="#000000" font-family="sans-serif" font-size="14" lengthAdjust="spacing" textLength="95" x="859.5" y="92.752">-production: int</text><line style="stroke:#181818;stroke-width:0.5;" x1="854.5" x2="1333.5" y1="99.8281" y2="99.8281"/><text fill="#000000" font-family="sans-serif" font-size="14" lengthAdjust="spacing" textLength="222" x="859.5" y="118.3613">-sortCountryListByProduction(map)</text><text fill="#000000" font-family="sans-serif" font-size="14" lengthAdjust="spacing" textLength="223" x="859.5" y="135.9707">-convertEntryListToCountryList(list)</text><text fill="#000000" font-family="sans-serif" font-size="14" lengthAdjust="spacing" textLength="469" x="859.5" y="153.5801">-getProductionOfFirstYearWithGreaterProduction(countryData,production)</text><text fill="#000000" font-family="sans-serif" font-size="14" lengthAdjust="spacing" textLength="308" x="859.5" y="171.1895">-getCountriesWithGreaterProduction(production)</text><text fill="#000000" font-family="sans-serif" font-size="14" lengthAdjust="spacing" textLength="117" x="859.5" y="188.7988">-validateFruit(fruit)</text><text fill="#000000" font-family="sans-serif" font-size="14" lengthAdjust="spacing" textLength="199" x="859.5" y="206.4082">-validateProduction(production)</text><text fill="#000000" font-family="sans-serif" font-size="14" lengthAdjust="spacing" textLength="4" x="859.5" y="224.0176"> </text><text fill="#000000" font-family="sans-serif" font-size="14" lengthAdjust="spacing" textLength="67" x="859.5" y="241.627">+execute()</text></g><!--MD5=[47de47a8b5f06cbc5e036fae0a9149b7]
class Iterable--><g id="elem_Iterable"><rect codeLine="108" fill="#F1F1F1" height="32" id="Iterable" rx="2.5" ry="2.5" style="stroke:#181818;stroke-width:0.5;" width="80" x="448" y="1118"/><ellipse cx="463" cy="1134" fill="#B4A7E5" rx="11" ry="11" style="stroke:#181818;stroke-width:1.0;"/><path d="M463.9531,1130.6406 L463.9531,1137.2969 L465.6719,1137.2969 Q466.2813,1137.2969 466.5469,1137.5313 Q466.8125,1137.7656 466.8125,1138.1563 Q466.8125,1138.5313 466.5469,1138.7656 Q466.2813,1139 465.6719,1139 L460.5313,1139 Q459.9219,1139 459.6563,1138.7656 Q459.3906,1138.5313 459.3906,1138.1406 Q459.3906,1137.7656 459.6563,1137.5313 Q459.9219,1137.2969 460.5313,1137.2969 L462.25,1137.2969 L462.25,1130.6406 L460.5313,1130.6406 Q459.9219,1130.6406 459.6563,1130.4063 Q459.3906,1130.1719 459.3906,1129.7813 Q459.3906,1129.4063 459.6563,1129.1719 Q459.9219,1128.9375 460.5313,1128.9375 L465.6719,1128.9375 Q466.2813,1128.9375 466.5469,1129.1719 Q466.8125,1129.4063 466.8125,1129.7813 Q466.8125,1130.1719 466.5469,1130.4063 Q466.2813,1130.6406 465.6719,1130.6406 L463.9531,1130.6406 Z " fill="#000000"/><text fill="#000000" font-family="sans-serif" font-size="14" font-style="italic" lengthAdjust="spacing" textLength="48" x="477" y="1139.7285">Iterable</text></g><!--MD5=[7a4729d26b999f6a4650b01106c103c5]
class Comparable--><g id="elem_Comparable"><rect codeLine="110" fill="#F1F1F1" height="32" id="Comparable" rx="2.5" ry="2.5" style="stroke:#181818;stroke-width:0.5;" width="109" x="215.5" y="1272"/><ellipse cx="230.5" cy="1288" fill="#B4A7E5" rx="11" ry="11" style="stroke:#181818;stroke-width:1.0;"/><path d="M231.4531,1284.6406 L231.4531,1291.2969 L233.1719,1291.2969 Q233.7813,1291.2969 234.0469,1291.5313 Q234.3125,1291.7656 234.3125,1292.1563 Q234.3125,1292.5313 234.0469,1292.7656 Q233.7813,1293 233.1719,1293 L228.0313,1293 Q227.4219,1293 227.1563,1292.7656 Q226.8906,1292.5313 226.8906,1292.1406 Q226.8906,1291.7656 227.1563,1291.5313 Q227.4219,1291.2969 228.0313,1291.2969 L229.75,1291.2969 L229.75,1284.6406 L228.0313,1284.6406 Q227.4219,1284.6406 227.1563,1284.4063 Q226.8906,1284.1719 226.8906,1283.7813 Q226.8906,1283.4063 227.1563,1283.1719 Q227.4219,1282.9375 228.0313,1282.9375 L233.1719,1282.9375 Q233.7813,1282.9375 234.0469,1283.1719 Q234.3125,1283.4063 234.3125,1283.7813 Q234.3125,1284.1719 234.0469,1284.4063 Q233.7813,1284.6406 233.1719,1284.6406 L231.4531,1284.6406 Z " fill="#000000"/><text fill="#000000" font-family="sans-serif" font-size="14" font-style="italic" lengthAdjust="spacing" textLength="77" x="244.5" y="1293.7285">Comparable</text></g><!--MD5=[d63cc3c675ca7bbb279b8b1467437af4]
reverse link Container to FruitData--><g id="link_Container_FruitData"><path codeLine="112" d="M529.51,500.06 C505.98,530.23 479.27,564.48 456.56,593.61 " fill="none" id="Container-backto-FruitData" style="stroke:#181818;stroke-width:1.0;"/><polygon fill="none" points="537.69,489.57,530.8459,491.8411,530.3099,499.0323,537.1541,496.7612,537.69,489.57" style="stroke:#181818;stroke-width:1.0;"/><text fill="#000000" font-family="sans-serif" font-size="13" lengthAdjust="spacing" textLength="49" x="493" y="560.4951">contains</text><text fill="#000000" font-family="sans-serif" font-size="13" lengthAdjust="spacing" textLength="7" x="524.9346" y="510.9255">1</text><text fill="#000000" font-family="sans-serif" font-size="13" lengthAdjust="spacing" textLength="20" x="440.949" y="583.2431">0..*</text></g><!--MD5=[5a35a5d2ff005f113f0492dd75a2f5ac]
reverse link FruitData to CountryData--><g id="link_FruitData_CountryData"><path codeLine="114" d="M358.11,741.59 C345.68,762.88 332.17,786.02 319.55,807.64 " fill="none" id="FruitData-backto-CountryData" style="stroke:#181818;stroke-width:1.0;"/><polygon fill="none" points="364.7,730.31,358.2202,733.4741,358.6486,740.6725,365.1285,737.5084,364.7,730.31" style="stroke:#181818;stroke-width:1.0;"/><text fill="#000000" font-family="sans-serif" font-size="13" lengthAdjust="spacing" textLength="49" x="347" y="774.4951">contains</text><text fill="#000000" font-family="sans-serif" font-size="13" lengthAdjust="spacing" textLength="7" x="353.2863" y="751.6903">1</text><text fill="#000000" font-family="sans-serif" font-size="13" lengthAdjust="spacing" textLength="20" x="302.9488" y="797.0727">0..*</text></g><!--MD5=[38360080dd61d2b58a58b9e3f66d4573]
reverse link CountryData to YearProductionData--><g id="link_CountryData_YearProductionData"><path codeLine="116" d="M270,992.48 C270,1013.96 270,1036.38 270,1056.85 " fill="none" id="CountryData-backto-YearProductionData" style="stroke:#181818;stroke-width:1.0;"/><polygon fill="none" points="270,979.26,266,985.26,270,991.26,274,985.26,270,979.26" style="stroke:#181818;stroke-width:1.0;"/><text fill="#000000" font-family="sans-serif" font-size="13" lengthAdjust="spacing" textLength="49" x="271" y="1023.4951">contains</text><text fill="#000000" font-family="sans-serif" font-size="13" lengthAdjust="spacing" textLength="7" x="262.6992" y="1000.8163">1</text><text fill="#000000" font-family="sans-serif" font-size="13" lengthAdjust="spacing" textLength="20" x="249.0469" y="1046.2624">0..*</text></g><!--MD5=[35e60d079f099a32ccea719bce77b0fe]
link YearProductionData to Comparable--><g id="link_YearProductionData_Comparable"><path codeLine="118" d="M270,1211.45 C270,1225.5 270,1239.54 270,1251.63 " fill="none" id="YearProductionData-to-Comparable" style="stroke:#181818;stroke-width:1.0;stroke-dasharray:7.0,7.0;"/><polygon fill="none" points="277,1251.98,270,1271.98,263,1251.98,277,1251.98" style="stroke:#181818;stroke-width:1.0;"/></g><!--MD5=[cd192b455def96fb040f78d454347cf1]
link CountryData to Iterable--><g id="link_CountryData_Iterable"><path codeLine="120" d="M347.47,979.26 C386.71,1022.19 431.91,1071.64 460.22,1102.61 " fill="none" id="CountryData-to-Iterable" style="stroke:#181818;stroke-width:1.0;stroke-dasharray:7.0,7.0;"/><polygon fill="none" points="465.74,1098.27,474.07,1117.76,455.41,1107.72,465.74,1098.27" style="stroke:#181818;stroke-width:1.0;"/></g><!--MD5=[ca3f223a6af7e2526a23611aca7577a7]
link FruitData to Iterable--><g id="link_FruitData_Iterable"><path codeLine="122" d="M429.45,730.05 C437.78,754.3 446.34,782.09 452,808 C474.67,911.8 483.43,1037.53 486.51,1097.65 " fill="none" id="FruitData-to-Iterable" style="stroke:#181818;stroke-width:1.0;stroke-dasharray:7.0,7.0;"/><polygon fill="none" points="493.51,1097.61,487.45,1117.92,479.53,1098.26,493.51,1097.61" style="stroke:#181818;stroke-width:1.0;"/></g><!--MD5=[83ef6b17293f47511bd8c6740db18f2a]
link Container to Iterable--><g id="link_Container_Iterable"><path codeLine="124" d="M582.85,489.77 C576.05,552.13 565.22,647.45 554,730 C536.01,862.36 530.61,895.35 508,1027 C503.92,1050.73 498.9,1077.36 494.9,1097.99 " fill="none" id="Container-to-Iterable" style="stroke:#181818;stroke-width:1.0;stroke-dasharray:7.0,7.0;"/><polygon fill="none" points="501.71,1099.65,491,1117.93,487.97,1096.96,501.71,1099.65" style="stroke:#181818;stroke-width:1.0;"/></g><!--MD5=[490bdb0b6d8c4bce34c8579f14a4e7e8]
link GreatestDifference to Container--><g id="link_GreatestDifference_Container"><path codeLine="126" d="M1418.33,178.73 C1402.1,203.45 1379.4,231.67 1352,249 C1144.8,380.02 850.23,411.52 695.02,418.72 " fill="none" id="GreatestDifference-to-Container" style="stroke:#181818;stroke-width:1.0;"/><polygon fill="#181818" points="690.01,418.94,699.1837,422.5236,695.0048,418.711,698.8174,414.532,690.01,418.94" style="stroke:#181818;stroke-width:1.0;"/><text fill="#000000" font-family="sans-serif" font-size="13" lengthAdjust="spacing" textLength="28" x="1298" y="293.4951">uses</text></g><!--MD5=[a9ba7ede6600335e63e24b2488119a39]
link GreatestDifference to GreatestDifferenceResult--><g id="link_GreatestDifference_GreatestDifferenceResult"><path codeLine="127" d="M1446,178.78 C1446,217.85 1446,273.47 1446,321.51 " fill="none" id="GreatestDifference-to-GreatestDifferenceResult" style="stroke:#181818;stroke-width:1.0;"/><polygon fill="#181818" points="1446,326.73,1450,317.73,1446,321.73,1442,317.73,1446,326.73" style="stroke:#181818;stroke-width:1.0;"/><text fill="#000000" font-family="sans-serif" font-size="13" lengthAdjust="spacing" textLength="43" x="1447" y="293.4951">outputs</text></g><!--MD5=[4efc7f6346bd364b98da1bb78125448d]
link DataHandler to CSVReader--><g id="link_DataHandler_CSVReader"><path codeLine="129" d="M205.22,157.22 C185.39,201.01 146.58,286.73 118.61,348.48 " fill="none" id="DataHandler-to-CSVReader" style="stroke:#181818;stroke-width:1.0;stroke-dasharray:7.0,7.0;"/><polygon fill="#181818" points="116.45,353.25,123.7987,346.6928,118.5072,348.6928,116.5071,343.4013,116.45,353.25" style="stroke:#181818;stroke-width:1.0;"/><text fill="#000000" font-family="sans-serif" font-size="13" lengthAdjust="spacing" textLength="28" x="150" y="293.4951">uses</text></g><!--MD5=[644bfc1986de8a5f90eb7c4e42aebabb]
link CountriesWithGreaterProduction to Container--><g id="link_CountriesWithGreaterProduction_Container"><path codeLine="131" d="M886.46,249.04 C820.48,287.2 750.3,327.78 694.8,359.89 " fill="none" id="CountriesWithGreaterProduction-to-Container" style="stroke:#181818;stroke-width:1.0;"/><polygon fill="#181818" points="690.15,362.57,699.9415,361.5084,694.4735,360.0586,695.9233,354.5907,690.15,362.57" style="stroke:#181818;stroke-width:1.0;"/><text fill="#000000" font-family="sans-serif" font-size="13" lengthAdjust="spacing" textLength="28" x="828" y="293.4951">uses</text></g><!--MD5=[d022d875514a38da11cbdc636e77f83d]
link CountriesWithProductionGrowth to Container--><g id="link_CountriesWithProductionGrowth_Container"><path codeLine="133" d="M682.04,178.78 C664.25,225.5 637.44,295.91 617.34,348.7 " fill="none" id="CountriesWithProductionGrowth-to-Container" style="stroke:#181818;stroke-width:1.0;"/><polygon fill="#181818" points="615.54,353.44,622.4899,346.4615,617.3253,348.7696,615.0173,343.605,615.54,353.44" style="stroke:#181818;stroke-width:1.0;"/><text fill="#000000" font-family="sans-serif" font-size="13" lengthAdjust="spacing" textLength="28" x="644" y="293.4951">uses</text></g><!--MD5=[1c9b0ea9caafa17ef7cb9b98e21eaa7a]
link CountrySetWithHigherProduction to Container--><g id="link_CountrySetWithHigherProduction_Container"><path codeLine="135" d="M471.09,205.21 C495.59,249.57 526.29,305.15 550.36,348.73 " fill="none" id="CountrySetWithHigherProduction-to-Container" style="stroke:#181818;stroke-width:1.0;"/><polygon fill="#181818" points="552.82,353.18,551.9458,343.37,550.3918,348.8092,544.9526,347.2552,552.82,353.18" style="stroke:#181818;stroke-width:1.0;"/><text fill="#000000" font-family="sans-serif" font-size="13" lengthAdjust="spacing" textLength="28" x="521" y="293.4951">uses</text></g><!--MD5=[bb004784e49b21e7e7fef17fc54b4aa8]
link DataHandler to Container--><g id="link_DataHandler_Container"><path codeLine="137" d="M230.24,157.47 C242.61,183.7 263.76,222.45 291,249 C346.87,303.44 423.36,346.91 485,376.46 " fill="none" id="DataHandler-to-Container" style="stroke:#181818;stroke-width:1.0;"/><polygon fill="#181818" points="489.78,378.74,483.3648,371.267,485.2631,376.5959,479.9342,378.4941,489.78,378.74" style="stroke:#181818;stroke-width:1.0;"/><text fill="#000000" font-family="sans-serif" font-size="13" lengthAdjust="spacing" textLength="28" x="350" y="293.4951">uses</text></g><!--MD5=[f69153647fd08b5fe1b4323802258d4b]
link DataHandler to CountryData--><g id="link_DataHandler_CountryData"><path codeLine="139" d="M219.18,157.19 C222.88,243.18 235.07,509.67 253,730 C254.92,753.62 257.4,779.14 259.87,802.79 " fill="none" id="DataHandler-to-CountryData" style="stroke:#181818;stroke-width:1.0;"/><polygon fill="#181818" points="260.39,807.81,263.416,798.4375,259.8614,802.838,255.4609,799.2833,260.39,807.81" style="stroke:#181818;stroke-width:1.0;"/><text fill="#000000" font-family="sans-serif" font-size="13" lengthAdjust="spacing" textLength="28" x="242" y="560.4951">uses</text></g><!--MD5=[be6a4bc6559a4c6eeeb1063b545dc4eb]
link DataHandler to FruitData--><g id="link_DataHandler_FruitData"><path codeLine="141" d="M227.87,157.23 C255.98,237.63 337.13,469.73 378.74,588.74 " fill="none" id="DataHandler-to-FruitData" style="stroke:#181818;stroke-width:1.0;"/><polygon fill="#181818" points="380.44,593.63,381.2648,583.8157,378.7991,588.9069,373.7079,586.4412,380.44,593.63" style="stroke:#181818;stroke-width:1.0;"/><text fill="#000000" font-family="sans-serif" font-size="13" lengthAdjust="spacing" textLength="28" x="354" y="426.9951">uses</text></g><!--MD5=[0eeea10136c5bca3c4bb725777b8ebc1]
@startuml CD_COMPLETE

skinparam classAttributeIconSize 0
hide empty members

class Container {
  -data: Map<String, FruitData>

  +addFruitData(fruit, fruitData)
  +getFruitData(fruit)
  +getFruits()
  +iterator()
}

class FruitData {
  -fruitData: Map<String, CountryData>

  +addCountryData(country, countryData)
  +getCountryData(country)
  +getCountries()
  +iterator()
}

class CountryData {
  -productionData: SortedSet<YearProductionData>

  +addProductionData(year, quantity)
  +getProductionData(year)
  +getProductionYears()
  +getOverallProductionQuantity()
  +size()
  +iterator()
}

class YearProductionData {
  -year: int
  -quantity: int

  +getYear()
  +getQuantity()
  +equals(other)
  +compareTo(other)
}

class GreatestDifferenceResult {
  - fruit: String
  - startYear: int
  - endYear: int
  - difference: int

  +getFruit()
  +getStartYear()
  +getEndYear()
  +getDifference()
}

class CSVReader {
  -scanner: Scanner

  + CSVReader(filename)

  - readHeader()
  + read()
}

class GreatestDifference {
  -data: Container
  -country: String

  +execute()
}

class DataHandler {
  +execute(data)
}

class CountrySetWithHigherProduction {
  -container: Container
  - quantityQ: int

  -sortArray()
  -getProductionQtyPerCountry()

  +execute()
}

class CountriesWithProductionGrowth {
  -data: Container
  -fruit: String

  +execute()
}

class CountriesWithGreaterProduction {
  -data: Container
  -fruit: String
  -production: int

  -sortCountryListByProduction(map)
  -convertEntryListToCountryList(list)
  -getProductionOfFirstYearWithGreaterProduction(countryData,production)
  -getCountriesWithGreaterProduction(production)
  -validateFruit(fruit)
  -validateProduction(production)

  +execute()
}

interface Iterable

interface Comparable

Container "1" o- - "0..*" FruitData : contains

FruitData "1" o- - "0..*" CountryData : contains

CountryData "1" o- - "0..*" YearProductionData : contains

YearProductionData ..|> Comparable

CountryData ..|> Iterable

FruitData ..|> Iterable

Container ..|> Iterable

GreatestDifference - -> Container : uses
GreatestDifference - -> GreatestDifferenceResult : outputs

DataHandler ..> CSVReader : uses

CountriesWithGreaterProduction - -> Container : uses

CountriesWithProductionGrowth - -> Container : uses

CountrySetWithHigherProduction - -> Container : uses

DataHandler - -> Container : uses

DataHandler - -> CountryData : uses

DataHandler - -> FruitData : uses

@enduml

PlantUML version 1.2022.7(Mon Aug 22 18:01:30 WEST 2022)
(GPL source distribution)
Java Runtime: Java(TM) SE Runtime Environment
JVM: Java HotSpot(TM) 64-Bit Server VM
Default Encoding: Cp1252
Language: pt
Country: PT
--></g></svg>