<?xml version="1.0" encoding="UTF-8" standalone="no"?><svg xmlns="http://www.w3.org/2000/svg" xmlns:xlink="http://www.w3.org/1999/xlink" contentStyleType="text/css" height="904px" preserveAspectRatio="none" style="width:512px;height:904px;background:#FFFFFF;" version="1.1" viewBox="0 0 512 904" width="512px" zoomAndPan="magnify"><defs/><g><!--MD5=[e9a58730c562b34349daa605d1ed6662]
class Container--><g id="elem_Container"><rect codeLine="5" fill="#F1F1F1" height="129.4844" id="Container" rx="2.5" ry="2.5" style="stroke:#181818;stroke-width:0.5;" width="219" x="286.5" y="7"/><ellipse cx="358.25" cy="23" fill="#ADD1B2" rx="11" ry="11" style="stroke:#181818;stroke-width:1.0;"/><path d="M361.2188,28.6406 Q360.6406,28.9375 360,29.0781 Q359.3594,29.2344 358.6563,29.2344 Q356.1563,29.2344 354.8281,27.5938 Q353.5156,25.9375 353.5156,22.8125 Q353.5156,19.6875 354.8281,18.0313 Q356.1563,16.375 358.6563,16.375 Q359.3594,16.375 360,16.5313 Q360.6563,16.6875 361.2188,16.9844 L361.2188,19.7031 Q360.5938,19.125 360,18.8594 Q359.4063,18.5781 358.7813,18.5781 Q357.4375,18.5781 356.75,19.6563 Q356.0625,20.7188 356.0625,22.8125 Q356.0625,24.9063 356.75,25.9844 Q357.4375,27.0469 358.7813,27.0469 Q359.4063,27.0469 360,26.7813 Q360.5938,26.5 361.2188,25.9219 L361.2188,28.6406 Z " fill="#000000"/><text fill="#000000" font-family="sans-serif" font-size="14" lengthAdjust="spacing" textLength="67" x="378.75" y="27.8467">Container</text><line style="stroke:#181818;stroke-width:0.5;" x1="287.5" x2="504.5" y1="39" y2="39"/><text fill="#000000" font-family="sans-serif" font-size="14" lengthAdjust="spacing" textLength="207" x="292.5" y="55.9951">-data: Map&lt;String, FruitData&gt;</text><line style="stroke:#181818;stroke-width:0.5;" x1="287.5" x2="504.5" y1="63.2969" y2="63.2969"/><text fill="#000000" font-family="sans-serif" font-size="14" lengthAdjust="spacing" textLength="202" x="292.5" y="80.292">+addFruitData(fruit, fruitData)</text><text fill="#000000" font-family="sans-serif" font-size="14" lengthAdjust="spacing" textLength="133" x="292.5" y="96.5889">+getFruitData(fruit)</text><text fill="#000000" font-family="sans-serif" font-size="14" lengthAdjust="spacing" textLength="83" x="292.5" y="112.8857">+getFruits()</text><text fill="#000000" font-family="sans-serif" font-size="14" lengthAdjust="spacing" textLength="71" x="292.5" y="129.1826">+iterator()</text></g><!--MD5=[f9749dc75bf6faa5a638f9c61b86e169]
class FruitData--><g id="elem_FruitData"><rect codeLine="14" fill="#F1F1F1" height="129.4844" id="FruitData" rx="2.5" ry="2.5" style="stroke:#181818;stroke-width:0.5;" width="290" x="152" y="213"/><ellipse cx="261.75" cy="229" fill="#ADD1B2" rx="11" ry="11" style="stroke:#181818;stroke-width:1.0;"/><path d="M264.7188,234.6406 Q264.1406,234.9375 263.5,235.0781 Q262.8594,235.2344 262.1563,235.2344 Q259.6563,235.2344 258.3281,233.5938 Q257.0156,231.9375 257.0156,228.8125 Q257.0156,225.6875 258.3281,224.0313 Q259.6563,222.375 262.1563,222.375 Q262.8594,222.375 263.5,222.5313 Q264.1563,222.6875 264.7188,222.9844 L264.7188,225.7031 Q264.0938,225.125 263.5,224.8594 Q262.9063,224.5781 262.2813,224.5781 Q260.9375,224.5781 260.25,225.6563 Q259.5625,226.7188 259.5625,228.8125 Q259.5625,230.9063 260.25,231.9844 Q260.9375,233.0469 262.2813,233.0469 Q262.9063,233.0469 263.5,232.7813 Q264.0938,232.5 264.7188,231.9219 L264.7188,234.6406 Z " fill="#000000"/><text fill="#000000" font-family="sans-serif" font-size="14" lengthAdjust="spacing" textLength="62" x="282.25" y="233.8467">FruitData</text><line style="stroke:#181818;stroke-width:0.5;" x1="153" x2="441" y1="245" y2="245"/><text fill="#000000" font-family="sans-serif" font-size="14" lengthAdjust="spacing" textLength="259" x="158" y="261.9951">-fruitData: Map&lt;String, CountryData&gt;</text><line style="stroke:#181818;stroke-width:0.5;" x1="153" x2="441" y1="269.2969" y2="269.2969"/><text fill="#000000" font-family="sans-serif" font-size="14" lengthAdjust="spacing" textLength="278" x="158" y="286.292">+addCountryData(country, countryData)</text><text fill="#000000" font-family="sans-serif" font-size="14" lengthAdjust="spacing" textLength="183" x="158" y="302.5889">+getCountryData(country)</text><text fill="#000000" font-family="sans-serif" font-size="14" lengthAdjust="spacing" textLength="112" x="158" y="318.8857">+getCountries()</text><text fill="#000000" font-family="sans-serif" font-size="14" lengthAdjust="spacing" textLength="71" x="158" y="335.1826">+iterator()</text></g><!--MD5=[7fc7cbba852adc009bf6f0cff1d89c87]
class CountryData--><g id="elem_CountryData"><rect codeLine="23" fill="#F1F1F1" height="162.0781" id="CountryData" rx="2.5" ry="2.5" style="stroke:#181818;stroke-width:0.5;" width="364" x="7" y="419"/><ellipse cx="141.75" cy="435" fill="#ADD1B2" rx="11" ry="11" style="stroke:#181818;stroke-width:1.0;"/><path d="M144.7188,440.6406 Q144.1406,440.9375 143.5,441.0781 Q142.8594,441.2344 142.1563,441.2344 Q139.6563,441.2344 138.3281,439.5938 Q137.0156,437.9375 137.0156,434.8125 Q137.0156,431.6875 138.3281,430.0313 Q139.6563,428.375 142.1563,428.375 Q142.8594,428.375 143.5,428.5313 Q144.1563,428.6875 144.7188,428.9844 L144.7188,431.7031 Q144.0938,431.125 143.5,430.8594 Q142.9063,430.5781 142.2813,430.5781 Q140.9375,430.5781 140.25,431.6563 Q139.5625,432.7188 139.5625,434.8125 Q139.5625,436.9063 140.25,437.9844 Q140.9375,439.0469 142.2813,439.0469 Q142.9063,439.0469 143.5,438.7813 Q144.0938,438.5 144.7188,437.9219 L144.7188,440.6406 Z " fill="#000000"/><text fill="#000000" font-family="sans-serif" font-size="14" lengthAdjust="spacing" textLength="86" x="162.25" y="439.8467">CountryData</text><line style="stroke:#181818;stroke-width:0.5;" x1="8" x2="370" y1="451" y2="451"/><text fill="#000000" font-family="sans-serif" font-size="14" lengthAdjust="spacing" textLength="352" x="13" y="467.9951">-productionData: SortedSet&lt;YearProductionData&gt;</text><line style="stroke:#181818;stroke-width:0.5;" x1="8" x2="370" y1="475.2969" y2="475.2969"/><text fill="#000000" font-family="sans-serif" font-size="14" lengthAdjust="spacing" textLength="247" x="13" y="492.292">+addProductionData(year, quantity)</text><text fill="#000000" font-family="sans-serif" font-size="14" lengthAdjust="spacing" textLength="181" x="13" y="508.5889">+getProductionData(year)</text><text fill="#000000" font-family="sans-serif" font-size="14" lengthAdjust="spacing" textLength="159" x="13" y="524.8857">+getProductionYears()</text><text fill="#000000" font-family="sans-serif" font-size="14" lengthAdjust="spacing" textLength="223" x="13" y="541.1826">+getOverallProductionQuantity()</text><text fill="#000000" font-family="sans-serif" font-size="14" lengthAdjust="spacing" textLength="50" x="13" y="557.4795">+size()</text><text fill="#000000" font-family="sans-serif" font-size="14" lengthAdjust="spacing" textLength="71" x="13" y="573.7764">+iterator()</text></g><!--MD5=[ad333e840a12d1559da41e79a89223e2]
class YearProductionData--><g id="elem_YearProductionData"><rect codeLine="34" fill="#F1F1F1" height="145.7813" id="YearProductionData" rx="2.5" ry="2.5" style="stroke:#181818;stroke-width:0.5;" width="170" x="104" y="658"/><ellipse cx="119" cy="674" fill="#ADD1B2" rx="11" ry="11" style="stroke:#181818;stroke-width:1.0;"/><path d="M121.9688,679.6406 Q121.3906,679.9375 120.75,680.0781 Q120.1094,680.2344 119.4063,680.2344 Q116.9063,680.2344 115.5781,678.5938 Q114.2656,676.9375 114.2656,673.8125 Q114.2656,670.6875 115.5781,669.0313 Q116.9063,667.375 119.4063,667.375 Q120.1094,667.375 120.75,667.5313 Q121.4063,667.6875 121.9688,667.9844 L121.9688,670.7031 Q121.3438,670.125 120.75,669.8594 Q120.1563,669.5781 119.5313,669.5781 Q118.1875,669.5781 117.5,670.6563 Q116.8125,671.7188 116.8125,673.8125 Q116.8125,675.9063 117.5,676.9844 Q118.1875,678.0469 119.5313,678.0469 Q120.1563,678.0469 120.75,677.7813 Q121.3438,677.5 121.9688,676.9219 L121.9688,679.6406 Z " fill="#000000"/><text fill="#000000" font-family="sans-serif" font-size="14" lengthAdjust="spacing" textLength="138" x="133" y="678.8467">YearProductionData</text><line style="stroke:#181818;stroke-width:0.5;" x1="105" x2="273" y1="690" y2="690"/><text fill="#000000" font-family="sans-serif" font-size="14" lengthAdjust="spacing" textLength="60" x="110" y="706.9951">-year: int</text><text fill="#000000" font-family="sans-serif" font-size="14" lengthAdjust="spacing" textLength="86" x="110" y="723.292">-quantity: int</text><line style="stroke:#181818;stroke-width:0.5;" x1="105" x2="273" y1="730.5938" y2="730.5938"/><text fill="#000000" font-family="sans-serif" font-size="14" lengthAdjust="spacing" textLength="76" x="110" y="747.5889">+getYear()</text><text fill="#000000" font-family="sans-serif" font-size="14" lengthAdjust="spacing" textLength="102" x="110" y="763.8857">+getQuantity()</text><text fill="#000000" font-family="sans-serif" font-size="14" lengthAdjust="spacing" textLength="105" x="110" y="780.1826">+equals(other)</text><text fill="#000000" font-family="sans-serif" font-size="14" lengthAdjust="spacing" textLength="138" x="110" y="796.4795">+compareTo(other)</text></g><!--MD5=[47de47a8b5f06cbc5e036fae0a9149b7]
class Iterable--><g id="elem_Iterable"><rect codeLine="44" fill="#F1F1F1" height="32" id="Iterable" rx="2.5" ry="2.5" style="stroke:#181818;stroke-width:0.5;" width="84" x="382" y="715"/><ellipse cx="397" cy="731" fill="#B4A7E5" rx="11" ry="11" style="stroke:#181818;stroke-width:1.0;"/><path d="M392.9219,726.7656 L392.9219,724.6094 L400.3125,724.6094 L400.3125,726.7656 L397.8438,726.7656 L397.8438,734.8438 L400.3125,734.8438 L400.3125,737 L392.9219,737 L392.9219,734.8438 L395.3906,734.8438 L395.3906,726.7656 L392.9219,726.7656 Z " fill="#000000"/><text fill="#000000" font-family="sans-serif" font-size="14" font-style="italic" lengthAdjust="spacing" textLength="52" x="411" y="735.8467">Iterable</text></g><!--MD5=[7a4729d26b999f6a4650b01106c103c5]
class Comparable--><g id="elem_Comparable"><rect codeLine="46" fill="#F1F1F1" height="32" id="Comparable" rx="2.5" ry="2.5" style="stroke:#181818;stroke-width:0.5;" width="115" x="131.5" y="865"/><ellipse cx="146.5" cy="881" fill="#B4A7E5" rx="11" ry="11" style="stroke:#181818;stroke-width:1.0;"/><path d="M142.4219,876.7656 L142.4219,874.6094 L149.8125,874.6094 L149.8125,876.7656 L147.3438,876.7656 L147.3438,884.8438 L149.8125,884.8438 L149.8125,887 L142.4219,887 L142.4219,884.8438 L144.8906,884.8438 L144.8906,876.7656 L142.4219,876.7656 Z " fill="#000000"/><text fill="#000000" font-family="sans-serif" font-size="14" font-style="italic" lengthAdjust="spacing" textLength="83" x="160.5" y="885.8467">Comparable</text></g><!--MD5=[d63cc3c675ca7bbb279b8b1467437af4]
reverse link Container to FruitData--><g id="link_Container_FruitData"><path codeLine="48" d="M359.27,148.18 C348.94,169.48 337.81,192.41 327.85,212.92 " fill="none" id="Container-backto-FruitData" style="stroke:#181818;stroke-width:1.0;"/><polygon fill="none" points="365.08,136.21,358.8634,139.8643,359.8457,147.0082,366.0623,143.3539,365.08,136.21" style="stroke:#181818;stroke-width:1.0;"/><text fill="#000000" font-family="sans-serif" font-size="13" lengthAdjust="spacing" textLength="54" x="350" y="179.0669">contains</text><text fill="#000000" font-family="sans-serif" font-size="13" lengthAdjust="spacing" textLength="8" x="353.0424" y="156.6059">1</text><text fill="#000000" font-family="sans-serif" font-size="13" lengthAdjust="spacing" textLength="23" x="306.9664" y="202.0839">0..*</text></g><!--MD5=[5a35a5d2ff005f113f0492dd75a2f5ac]
reverse link FruitData to CountryData--><g id="link_FruitData_CountryData"><path codeLine="50" d="M260.01,354.02 C249.77,374.93 238.61,397.71 228.24,418.88 " fill="none" id="FruitData-backto-CountryData" style="stroke:#181818;stroke-width:1.0;"/><polygon fill="none" points="265.76,342.28,259.5291,345.9099,260.4833,353.0576,266.7142,349.4277,265.76,342.28" style="stroke:#181818;stroke-width:1.0;"/><text fill="#000000" font-family="sans-serif" font-size="13" lengthAdjust="spacing" textLength="54" x="251" y="385.0669">contains</text><text fill="#000000" font-family="sans-serif" font-size="13" lengthAdjust="spacing" textLength="8" x="253.6854" y="362.6839">1</text><text fill="#000000" font-family="sans-serif" font-size="13" lengthAdjust="spacing" textLength="23" x="207.7106" y="408.0566">0..*</text></g><!--MD5=[38360080dd61d2b58a58b9e3f66d4573]
reverse link CountryData to YearProductionData--><g id="link_CountryData_YearProductionData"><path codeLine="52" d="M189,594.18 C189,615.46 189,637.75 189,657.98 " fill="none" id="CountryData-backto-YearProductionData" style="stroke:#181818;stroke-width:1.0;"/><polygon fill="none" points="189,581.09,185,587.09,189,593.09,193,587.09,189,581.09" style="stroke:#181818;stroke-width:1.0;"/><text fill="#000000" font-family="sans-serif" font-size="13" lengthAdjust="spacing" textLength="54" x="190" y="624.0669">contains</text><text fill="#000000" font-family="sans-serif" font-size="13" lengthAdjust="spacing" textLength="8" x="180.6438" y="601.0494">1</text><text fill="#000000" font-family="sans-serif" font-size="13" lengthAdjust="spacing" textLength="23" x="164.8141" y="646.7614">0..*</text></g><!--MD5=[35e60d079f099a32ccea719bce77b0fe]
link YearProductionData to Comparable--><g id="link_YearProductionData_Comparable"><path codeLine="54" d="M189,804.27 C189,818.22 189,832.25 189,844.38 " fill="none" id="YearProductionData-to-Comparable" style="stroke:#181818;stroke-width:1.0;"/><polygon fill="none" points="196,844.84,189,864.84,182,844.84,196,844.84" style="stroke:#181818;stroke-width:1.0;"/></g><!--MD5=[cd192b455def96fb040f78d454347cf1]
link CountryData to Iterable--><g id="link_CountryData_Iterable"><path codeLine="56" d="M271.19,581.09 C313.6,622.42 362.78,670.34 393.64,700.41 " fill="none" id="CountryData-to-Iterable" style="stroke:#181818;stroke-width:1.0;"/><polygon fill="none" points="398.92,695.79,408.36,714.76,389.15,705.81,398.92,695.79" style="stroke:#181818;stroke-width:1.0;"/></g><!--MD5=[ca3f223a6af7e2526a23611aca7577a7]
link FruitData to Iterable--><g id="link_FruitData_Iterable"><path codeLine="58" d="M347.8,342.28 C363.56,365.23 379.31,392.12 389,419 C423.32,514.23 426.22,635.56 425.26,694.57 " fill="none" id="FruitData-to-Iterable" style="stroke:#181818;stroke-width:1.0;"/><polygon fill="none" points="432.25,695.07,424.73,714.88,418.26,694.7,432.25,695.07" style="stroke:#181818;stroke-width:1.0;"/></g><!--MD5=[83ef6b17293f47511bd8c6740db18f2a]
link Container to Iterable--><g id="link_Container_Iterable"><path codeLine="60" d="M432,136.25 C443.31,159.64 454.32,186.81 460,213 C473.27,274.14 461.57,538.42 449,628 C445.8,650.83 439.66,675.98 434.27,695.6 " fill="none" id="Container-to-Iterable" style="stroke:#181818;stroke-width:1.0;"/><polygon fill="none" points="440.95,697.69,428.69,714.98,427.5,693.82,440.95,697.69" style="stroke:#181818;stroke-width:1.0;"/></g><!--MD5=[c79bd834a2430618caae4f919f6b76e9]
@startuml CD_SIMPLIFIED

skinparam classAttributeIconSize 0
hide empty members

class Container {
  -data: Map<String, FruitData>

  +addFruitData(fruit, fruitData)
  +getFruitData(fruit)
  +getFruits()
  +iterator()
}

class FruitData {
  -fruitData: Map<String, CountryData>

  +addCountryData(country, countryData)
  +getCountryData(country)
  +getCountries()
  +iterator()
}

class CountryData {
  -productionData: SortedSet<YearProductionData>

  +addProductionData(year, quantity)
  +getProductionData(year)
  +getProductionYears()
  +getOverallProductionQuantity()
  +size()
  +iterator()
}

class YearProductionData {
  -year: int
  -quantity: int

  +getYear()
  +getQuantity()
  +equals(other)
  +compareTo(other)
}

interface Iterable

interface Comparable

Container "1" o- - "0..*" FruitData : contains

FruitData "1" o- - "0..*" CountryData : contains

CountryData "1" o- - "0..*" YearProductionData : contains

YearProductionData - -|> Comparable

CountryData - -|> Iterable

FruitData - -|> Iterable

Container - -|> Iterable

@enduml

PlantUML version 1.2022.7(Mon Aug 22 18:01:30 WEST 2022)
(GPL source distribution)
Java Runtime: OpenJDK Runtime Environment
JVM: OpenJDK 64-Bit Server VM
Default Encoding: UTF-8
Language: en
Country: US
--></g></svg>